<svg width="1450" height="1360" viewBox="0 0 1450 1360" xmlns="http://www.w3.org/2000/svg">
<rect width="100%" height="100%" fill="white"/>
<circle cx="125.00" cy="140.00" r="40.00" stroke="black" stroke-width="2" fill="none" />
<polyline points="105.00,164.49 111.32,166.58 118.05,167.85 125.00,168.28 131.95,167.85 138.68,166.58 145.00,164.49 150.71,161.67 155.64,158.18 159.64,154.14 162.59,149.67 164.39,144.91 165.00,140.00 164.39,135.09 162.59,130.33 159.64,125.86 155.64,121.82 150.71,118.33 145.00,115.51" stroke="black" stroke-width="1" fill="none" stroke-dasharray="3,3" />
<polyline points="125.00,168.28 131.02,170.31 136.85,171.42 142.32,171.57 147.27,170.76 151.54,169.01 155.00,166.39 157.55,162.96 159.11,158.84 159.64,154.14 159.11,149.02 157.55,143.62 155.00,138.11 151.54,132.65 147.27,127.42 142.32,122.58 136.85,118.26 131.02,114.60 125.00,111.72" stroke="black" stroke-width="1" fill="none" stroke-dasharray="3,3" />
<ellipse cx="106.00" cy="161.86" rx="4.00" ry="6.00" stroke="black" stroke-width="2" fill="none" />
<polyline points="144.00,115.32 144.46,147.27 154.44,190.20 112.46,186.47 106.00,161.86" stroke="black" stroke-width="2" fill="none"  />
<line x1="154.44" y1="190.20" x2="118.07" y2="159.80" stroke="black" stroke-width="1" stroke-dasharray="2,2" />
<line x1="144.46" y1="147.27" x2="118.07" y2="159.80" stroke="black" stroke-width="1" stroke-dasharray="2,2" />
<line x1="112.46" y1="186.47" x2="118.07" y2="159.80" stroke="black" stroke-width="1" stroke-dasharray="2,2" />
<circle cx="275.00" cy="140.00" r="40.00" stroke="black" stroke-width="2" fill="none" />
<polyline points="246.72,160.00 252.06,163.17 258.10,165.63 264.65,167.32 271.51,168.18 278.49,168.18 285.35,167.32 291.90,165.63 297.94,163.17 303.28,160.00 307.77,156.22 311.25,151.95 313.64,147.32 314.85,142.47 314.85,137.53 313.64,132.68 311.25,128.05 307.77,123.78 303.28,120.00" stroke="black" stroke-width="1" fill="none" stroke-dasharray="3,3" />
<polyline points="275.00,168.28 279.91,171.33 284.67,173.42 289.14,174.49 293.18,174.52 296.67,173.50 299.49,171.46 301.58,168.47 302.85,164.61 303.28,160.00 302.85,154.78 301.58,149.12 299.49,143.18 296.67,137.14 293.18,131.19 289.14,125.51 284.67,120.26 279.91,115.62 275.00,111.72" stroke="black" stroke-width="1" fill="none" stroke-dasharray="3,3" />
<ellipse cx="301.87" cy="119.59" rx="4.00" ry="6.00" stroke="black" stroke-width="2" fill="none" />
<ellipse cx="248.13" cy="157.59" rx="4.00" ry="6.00" stroke="black" stroke-width="2" fill="none" />
<polyline points="301.87,119.59 300.46,151.46 299.04,195.18 255.20,183.46 248.13,157.59" stroke="black" stroke-width="2" fill="none"  />
<line x1="299.04" y1="195.18" x2="269.34" y2="158.63" stroke="black" stroke-width="1" stroke-dasharray="2,2" />
<line x1="300.46" y1="151.46" x2="269.34" y2="158.63" stroke="black" stroke-width="1" stroke-dasharray="2,2" />
<line x1="255.20" y1="183.46" x2="269.34" y2="158.63" stroke="black" stroke-width="1" stroke-dasharray="2,2" />
<circle cx="425.00" cy="140.00" r="40.00" stroke="black" stroke-width="2" fill="none" />
<polyline points="390.36,154.14 394.36,158.18 399.29,161.67 405.00,164.49 411.32,166.58 418.05,167.85 425.00,168.28 431.95,167.85 438.68,166.58 445.00,164.49 450.71,161.67 455.64,158.18 459.64,154.14 462.59,149.67 464.39,144.91 465.00,140.00 464.39,135.09 462.59,130.33 459.64,125.86" stroke="black" stroke-width="1" fill="none" stroke-dasharray="3,3" />
<polyline points="425.00,168.28 428.47,172.11 431.84,174.96 435.00,176.74 437.86,177.41 440.32,176.94 442.32,175.36 443.79,172.69 444.70,169.03 445.00,164.49 444.70,159.21 443.79,153.34 442.32,147.07 440.32,140.58 437.86,134.08 435.00,127.75 431.84,121.80 428.47,116.40 425.00,111.72" stroke="black" stroke-width="1" fill="none" stroke-dasharray="3,3" />
<ellipse cx="457.91" cy="125.15" rx="4.00" ry="6.00" stroke="black" stroke-width="2" fill="none" />
<ellipse cx="392.09" cy="152.02" rx="4.00" ry="6.00" stroke="black" stroke-width="2" fill="none" />
<polyline points="457.91,125.15 454.71,156.59 442.00,199.00 399.29,179.22 392.09,152.02" stroke="black" stroke-width="2" fill="none"  />
<line x1="442.00" y1="199.00" x2="421.00" y2="157.73" stroke="black" stroke-width="1" stroke-dasharray="2,2" />
<line x1="454.71" y1="156.59" x2="421.00" y2="157.73" stroke="black" stroke-width="1" stroke-dasharray="2,2" />
<line x1="399.29" y1="179.22" x2="421.00" y2="157.73" stroke="black" stroke-width="1" stroke-dasharray="2,2" />
<circle cx="575.00" cy="140.00" r="40.00" stroke="black" stroke-width="2" fill="none" />
<polyline points="536.36,147.32 538.75,151.95 542.23,156.22 546.72,160.00 552.06,163.17 558.10,165.63 564.65,167.32 571.51,168.18 578.49,168.18 585.35,167.32 591.90,165.63 597.94,163.17 603.28,160.00 607.77,156.22 611.25,151.95 613.64,147.32 614.85,142.47 614.85,137.53 613.64,132.68" stroke="black" stroke-width="1" fill="none" stroke-dasharray="3,3" />
<polyline points="575.00,168.28 576.80,172.60 578.54,175.92 580.18,178.16 581.65,179.23 582.93,179.11 583.97,177.80 584.73,175.35 585.20,171.82 585.35,167.32 585.20,161.99 584.73,156.00 583.97,149.52 582.93,142.75 581.65,135.89 580.18,129.17 578.54,122.77 576.80,116.89 575.00,111.72" stroke="black" stroke-width="1" fill="none" stroke-dasharray="3,3" />
<ellipse cx="611.71" cy="131.63" rx="4.00" ry="6.00" stroke="black" stroke-width="2" fill="none" />
<ellipse cx="538.29" cy="145.54" rx="4.00" ry="6.00" stroke="black" stroke-width="2" fill="none" />
<polyline points="611.71,131.63 606.94,162.33 583.80,201.41 545.13,174.04 538.29,145.54" stroke="black" stroke-width="2" fill="none"  />
<line x1="583.80" y1="201.41" x2="572.93" y2="157.16" stroke="black" stroke-width="1" stroke-dasharray="2,2" />
<line x1="606.94" y1="162.33" x2="572.93" y2="157.16" stroke="black" stroke-width="1" stroke-dasharray="2,2" />
<line x1="545.13" y1="174.04" x2="572.93" y2="157.16" stroke="black" stroke-width="1" stroke-dasharray="2,2" />
<circle cx="725.00" cy="140.00" r="40.00" stroke="black" stroke-width="2" fill="none" />
<polyline points="685.00,140.00 685.61,144.91 687.41,149.67 690.36,154.14 694.36,158.18 699.29,161.67 705.00,164.49 711.32,166.58 718.05,167.85 725.00,168.28 731.95,167.85 738.68,166.58 745.00,164.49 750.71,161.67 755.64,158.18 759.64,154.14 762.59,149.67 764.39,144.91 765.00,140.00" stroke="black" stroke-width="1" fill="none" stroke-dasharray="3,3" />
<polyline points="725.00,168.28 725.00,172.77 725.00,176.25 725.00,178.64 725.00,179.85 725.00,179.85 725.00,178.64 725.00,176.25 725.00,172.77 725.00,168.28 725.00,162.94 725.00,156.90 725.00,150.35 725.00,143.49 725.00,136.51 725.00,129.65 725.00,123.10 725.00,117.06 725.00,111.72" stroke="black" stroke-width="1" fill="none" stroke-dasharray="3,3" />
<ellipse cx="763.00" cy="138.59" rx="4.00" ry="6.00" stroke="black" stroke-width="2" fill="none" />
<ellipse cx="687.00" cy="138.59" rx="4.00" ry="6.00" stroke="black" stroke-width="2" fill="none" />
<polyline points="763.00,138.59 757.00,168.28 725.00,202.23 693.00,168.28 687.00,138.59" stroke="black" stroke-width="2" fill="none"  />
<line x1="725.00" y1="202.23" x2="725.00" y2="156.97" stroke="black" stroke-width="1" stroke-dasharray="2,2" />
<line x1="757.00" y1="168.28" x2="725.00" y2="156.97" stroke="black" stroke-width="1" stroke-dasharray="2,2" />
<line x1="693.00" y1="168.28" x2="725.00" y2="156.97" stroke="black" stroke-width="1" stroke-dasharray="2,2" />
<circle cx="875.00" cy="140.00" r="40.00" stroke="black" stroke-width="2" fill="none" />
<polyline points="836.36,132.68 835.15,137.53 835.15,142.47 836.36,147.32 838.75,151.95 842.23,156.22 846.72,160.00 852.06,163.17 858.10,165.63 864.65,167.32 871.51,168.18 878.49,168.18 885.35,167.32 891.90,165.63 897.94,163.17 903.28,160.00 907.77,156.22 911.25,151.95 913.64,147.32" stroke="black" stroke-width="1" fill="none" stroke-dasharray="3,3" />
<polyline points="875.00,168.28 873.20,172.60 871.46,175.92 869.82,178.16 868.35,179.23 867.07,179.11 866.03,177.80 865.27,175.35 864.80,171.82 864.65,167.32 864.80,161.99 865.27,156.00 866.03,149.52 867.07,142.75 868.35,135.89 869.82,129.17 871.46,122.77 873.20,116.89 875.00,111.72" stroke="black" stroke-width="1" fill="none" stroke-dasharray="3,3" />
<ellipse cx="911.71" cy="145.54" rx="4.00" ry="6.00" stroke="black" stroke-width="2" fill="none" />
<ellipse cx="838.29" cy="131.63" rx="4.00" ry="6.00" stroke="black" stroke-width="2" fill="none" />
<polyline points="911.71,145.54 904.87,174.04 866.20,201.41 843.06,162.33 838.29,131.63" stroke="black" stroke-width="2" fill="none"  />
<line x1="866.20" y1="201.41" x2="877.07" y2="157.16" stroke="black" stroke-width="1" stroke-dasharray="2,2" />
<line x1="904.87" y1="174.04" x2="877.07" y2="157.16" stroke="black" stroke-width="1" stroke-dasharray="2,2" />
<line x1="843.06" y1="162.33" x2="877.07" y2="157.16" stroke="black" stroke-width="1" stroke-dasharray="2,2" />
<circle cx="1025.00" cy="140.00" r="40.00" stroke="black" stroke-width="2" fill="none" />
<polyline points="990.36,125.86 987.41,130.33 985.61,135.09 985.00,140.00 985.61,144.91 987.41,149.67 990.36,154.14 994.36,158.18 999.29,161.67 1005.00,164.49 1011.32,166.58 1018.05,167.85 1025.00,168.28 1031.95,167.85 1038.68,166.58 1045.00,164.49 1050.71,161.67 1055.64,158.18 1059.64,154.14" stroke="black" stroke-width="1" fill="none" stroke-dasharray="3,3" />
<polyline points="1025.00,168.28 1021.53,172.11 1018.16,174.96 1015.00,176.74 1012.14,177.41 1009.68,176.94 1007.68,175.36 1006.21,172.69 1005.30,169.03 1005.00,164.49 1005.30,159.21 1006.21,153.34 1007.68,147.07 1009.68,140.58 1012.14,134.08 1015.00,127.75 1018.16,121.80 1021.53,116.40 1025.00,111.72" stroke="black" stroke-width="1" fill="none" stroke-dasharray="3,3" />
<ellipse cx="1057.91" cy="152.02" rx="4.00" ry="6.00" stroke="black" stroke-width="2" fill="none" />
<ellipse cx="992.09" cy="125.15" rx="4.00" ry="6.00" stroke="black" stroke-width="2" fill="none" />
<polyline points="1057.91,152.02 1050.71,179.22 1008.00,199.00 995.29,156.59 992.09,125.15" stroke="black" stroke-width="2" fill="none"  />
<line x1="1008.00" y1="199.00" x2="1029.00" y2="157.73" stroke="black" stroke-width="1" stroke-dasharray="2,2" />
<line x1="1050.71" y1="179.22" x2="1029.00" y2="157.73" stroke="black" stroke-width="1" stroke-dasharray="2,2" />
<line x1="995.29" y1="156.59" x2="1029.00" y2="157.73" stroke="black" stroke-width="1" stroke-dasharray="2,2" />
<circle cx="1175.00" cy="140.00" r="40.00" stroke="black" stroke-width="2" fill="none" />
<polyline points="1146.72,120.00 1142.23,123.78 1138.75,128.05 1136.36,132.68 1135.15,137.53 1135.15,142.47 1136.36,147.32 1138.75,151.95 1142.23,156.22 1146.72,160.00 1152.06,163.17 1158.10,165.63 1164.65,167.32 1171.51,168.18 1178.49,168.18 1185.35,167.32 1191.90,165.63 1197.94,163.17 1203.28,160.00" stroke="black" stroke-width="1" fill="none" stroke-dasharray="3,3" />
<polyline points="1175.00,168.28 1170.09,171.33 1165.33,173.42 1160.86,174.49 1156.82,174.52 1153.33,173.50 1150.51,171.46 1148.42,168.47 1147.15,164.61 1146.72,160.00 1147.15,154.78 1148.42,149.12 1150.51,143.18 1153.33,137.14 1156.82,131.19 1160.86,125.51 1165.33,120.26 1170.09,115.62 1175.00,111.72" stroke="black" stroke-width="1" fill="none" stroke-dasharray="3,3" />
<ellipse cx="1201.87" cy="157.59" rx="4.00" ry="6.00" stroke="black" stroke-width="2" fill="none" />
<ellipse cx="1148.13" cy="119.59" rx="4.00" ry="6.00" stroke="black" stroke-width="2" fill="none" />
<polyline points="1201.87,157.59 1194.80,183.46 1150.96,195.18 1149.54,151.46 1148.13,119.59" stroke="black" stroke-width="2" fill="none"  />
<line x1="1150.96" y1="195.18" x2="1180.66" y2="158.63" stroke="black" stroke-width="1" stroke-dasharray="2,2" />
<line x1="1194.80" y1="183.46" x2="1180.66" y2="158.63" stroke="black" stroke-width="1" stroke-dasharray="2,2" />
<line x1="1149.54" y1="151.46" x2="1180.66" y2="158.63" stroke="black" stroke-width="1" stroke-dasharray="2,2" />
<circle cx="1325.00" cy="140.00" r="40.00" stroke="black" stroke-width="2" fill="none" />
<polyline points="1305.00,115.51 1299.29,118.33 1294.36,121.82 1290.36,125.86 1287.41,130.33 1285.61,135.09 1285.00,140.00 1285.61,144.91 1287.41,149.67 1290.36,154.14 1294.36,158.18 1299.29,161.67 1305.00,164.49 1311.32,166.58 1318.05,167.85 1325.00,168.28 1331.95,167.85 1338.68,166.58 1345.00,164.49" stroke="black" stroke-width="1" fill="none" stroke-dasharray="3,3" />
<polyline points="1325.00,168.28 1318.98,170.31 1313.15,171.42 1307.68,171.57 1302.73,170.76 1298.46,169.01 1295.00,166.39 1292.45,162.96 1290.89,158.84 1290.36,154.14 1290.89,149.02 1292.45,143.62 1295.00,138.11 1298.46,132.65 1302.73,127.42 1307.68,122.58 1313.15,118.26 1318.98,114.60 1325.00,111.72" stroke="black" stroke-width="1" fill="none" stroke-dasharray="3,3" />
<ellipse cx="1344.00" cy="161.86" rx="4.00" ry="6.00" stroke="black" stroke-width="2" fill="none" />
<polyline points="1344.00,161.86 1337.54,186.47 1295.56,190.20 1305.54,147.27 1306.00,115.32" stroke="black" stroke-width="2" fill="none"  />
<line x1="1295.56" y1="190.20" x2="1331.93" y2="159.80" stroke="black" stroke-width="1" stroke-dasharray="2,2" />
<line x1="1337.54" y1="186.47" x2="1331.93" y2="159.80" stroke="black" stroke-width="1" stroke-dasharray="2,2" />
<line x1="1305.54" y1="147.27" x2="1331.93" y2="159.80" stroke="black" stroke-width="1" stroke-dasharray="2,2" />
<circle cx="125.00" cy="320.00" r="40.00" stroke="black" stroke-width="2" fill="none" />
<polyline points="105.00,337.32 111.32,338.79 118.05,339.70 125.00,340.00 131.95,339.70 138.68,338.79 145.00,337.32 150.71,335.32 155.64,332.86 159.64,330.00 162.59,326.84 164.39,323.47 165.00,320.00 164.39,316.53 162.59,313.16 159.64,310.00 155.64,307.14 150.71,304.68 145.00,302.68" stroke="black" stroke-width="1" fill="none" stroke-dasharray="3,3" />
<polyline points="125.00,354.64 131.02,355.85 136.85,355.97 142.32,355.00 147.27,352.96 151.54,349.93 155.00,345.98 157.55,341.24 159.11,335.86 159.64,330.00 159.11,323.83 157.55,317.55 155.00,311.34 151.54,305.39 147.27,299.89 142.32,295.00 136.85,290.87 131.02,287.62 125.00,285.36" stroke="black" stroke-width="1" fill="none" stroke-dasharray="3,3" />
<ellipse cx="106.00" cy="334.72" rx="4.00" ry="6.00" stroke="black" stroke-width="2" fill="none" />
<polyline points="144.00,301.81 144.46,338.32 154.44,375.27 112.46,366.03 106.00,334.72" stroke="black" stroke-width="2" fill="none"  />
<line x1="154.44" y1="375.27" x2="118.07" y2="345.71" stroke="black" stroke-width="1" stroke-dasharray="2,2" />
<line x1="144.46" y1="338.32" x2="118.07" y2="345.71" stroke="black" stroke-width="1" stroke-dasharray="2,2" />
<line x1="112.46" y1="366.03" x2="118.07" y2="345.71" stroke="black" stroke-width="1" stroke-dasharray="2,2" />
<circle cx="275.00" cy="320.00" r="40.00" stroke="black" stroke-width="2" fill="none" />
<polyline points="246.72,334.14 252.06,336.38 258.10,338.13 264.65,339.32 271.51,339.92 278.49,339.92 285.35,339.32 291.90,338.13 297.94,336.38 303.28,334.14 307.77,331.47 311.25,328.45 313.64,325.18 314.85,321.74 314.85,318.26 313.64,314.82 311.25,311.55 307.77,308.53 303.28,305.86" stroke="black" stroke-width="1" fill="none" stroke-dasharray="3,3" />
<polyline points="275.00,354.64 279.91,356.57 284.67,357.39 289.14,357.07 293.18,355.63 296.67,353.10 299.49,349.57 301.58,345.14 302.85,339.94 303.28,334.14 302.85,327.91 301.58,321.44 299.49,314.93 296.67,308.57 293.18,302.55 289.14,297.07 284.67,292.28 279.91,288.34 275.00,285.36" stroke="black" stroke-width="1" fill="none" stroke-dasharray="3,3" />
<ellipse cx="301.87" cy="304.83" rx="4.00" ry="6.00" stroke="black" stroke-width="2" fill="none" />
<ellipse cx="248.13" cy="331.70" rx="4.00" ry="6.00" stroke="black" stroke-width="2" fill="none" />
<polyline points="301.87,304.83 300.46,341.28 299.04,378.79 255.20,363.90 248.13,331.70" stroke="black" stroke-width="2" fill="none"  />
<line x1="299.04" y1="378.79" x2="269.34" y2="344.88" stroke="black" stroke-width="1" stroke-dasharray="2,2" />
<line x1="300.46" y1="341.28" x2="269.34" y2="344.88" stroke="black" stroke-width="1" stroke-dasharray="2,2" />
<line x1="255.20" y1="363.90" x2="269.34" y2="344.88" stroke="black" stroke-width="1" stroke-dasharray="2,2" />
<circle cx="425.00" cy="320.00" r="40.00" stroke="black" stroke-width="2" fill="none" />
<polyline points="390.36,330.00 394.36,332.86 399.29,335.32 405.00,337.32 411.32,338.79 418.05,339.70 425.00,340.00 431.95,339.70 438.68,338.79 445.00,337.32 450.71,335.32 455.64,332.86 459.64,330.00 462.59,326.84 464.39,323.47 465.00,320.00 464.39,316.53 462.59,313.16 459.64,310.00" stroke="black" stroke-width="1" fill="none" stroke-dasharray="3,3" />
<polyline points="425.00,354.64 428.47,357.12 431.84,358.48 435.00,358.66 437.86,357.67 440.32,355.54 442.32,352.32 443.79,348.12 444.70,343.07 445.00,337.32 444.70,331.04 443.79,324.43 442.32,317.68 440.32,311.00 437.86,304.60 435.00,298.66 431.84,293.37 428.47,288.89 425.00,285.36" stroke="black" stroke-width="1" fill="none" stroke-dasharray="3,3" />
<ellipse cx="457.91" cy="308.77" rx="4.00" ry="6.00" stroke="black" stroke-width="2" fill="none" />
<ellipse cx="392.09" cy="327.77" rx="4.00" ry="6.00" stroke="black" stroke-width="2" fill="none" />
<polyline points="457.91,308.77 454.71,344.91 442.00,381.49 399.29,360.91 392.09,327.77" stroke="black" stroke-width="2" fill="none"  />
<line x1="442.00" y1="381.49" x2="421.00" y2="344.25" stroke="black" stroke-width="1" stroke-dasharray="2,2" />
<line x1="454.71" y1="344.91" x2="421.00" y2="344.25" stroke="black" stroke-width="1" stroke-dasharray="2,2" />
<line x1="399.29" y1="360.91" x2="421.00" y2="344.25" stroke="black" stroke-width="1" stroke-dasharray="2,2" />
<circle cx="575.00" cy="320.00" r="40.00" stroke="black" stroke-width="2" fill="none" />
<polyline points="536.36,325.18 538.75,328.45 542.23,331.47 546.72,334.14 552.06,336.38 558.10,338.13 564.65,339.32 571.51,339.92 578.49,339.92 585.35,339.32 591.90,338.13 597.94,336.38 603.28,334.14 607.77,331.47 611.25,328.45 613.64,325.18 614.85,321.74 614.85,318.26 613.64,314.82" stroke="black" stroke-width="1" fill="none" stroke-dasharray="3,3" />
<polyline points="575.00,354.64 576.80,357.47 578.54,359.16 580.18,359.66 581.65,358.95 582.93,357.07 583.97,354.05 584.73,350.00 585.20,345.04 585.35,339.32 585.20,333.01 584.73,326.31 583.97,319.41 582.93,312.53 581.65,305.88 580.18,299.66 578.54,294.06 576.80,289.24 575.00,285.36" stroke="black" stroke-width="1" fill="none" stroke-dasharray="3,3" />
<ellipse cx="611.71" cy="313.35" rx="4.00" ry="6.00" stroke="black" stroke-width="2" fill="none" />
<ellipse cx="538.29" cy="323.19" rx="4.00" ry="6.00" stroke="black" stroke-width="2" fill="none" />
<polyline points="611.71,313.35 606.94,348.97 583.80,383.19 545.13,357.25 538.29,323.19" stroke="black" stroke-width="2" fill="none"  />
<line x1="583.80" y1="383.19" x2="572.93" y2="343.85" stroke="black" stroke-width="1" stroke-dasharray="2,2" />
<line x1="606.94" y1="348.97" x2="572.93" y2="343.85" stroke="black" stroke-width="1" stroke-dasharray="2,2" />
<line x1="545.13" y1="357.25" x2="572.93" y2="343.85" stroke="black" stroke-width="1" stroke-dasharray="2,2" />
<circle cx="725.00" cy="320.00" r="40.00" stroke="black" stroke-width="2" fill="none" />
<polyline points="685.00,320.00 685.61,323.47 687.41,326.84 690.36,330.00 694.36,332.86 699.29,335.32 705.00,337.32 711.32,338.79 718.05,339.70 725.00,340.00 731.95,339.70 738.68,338.79 745.00,337.32 750.71,335.32 755.64,332.86 759.64,330.00 762.59,326.84 764.39,323.47 765.00,320.00" stroke="black" stroke-width="1" fill="none" stroke-dasharray="3,3" />
<polyline points="725.00,354.64 725.00,357.59 725.00,359.39 725.00,360.00 725.00,359.39 725.00,357.59 725.00,354.64 725.00,350.64 725.00,345.71 725.00,340.00 725.00,333.68 725.00,326.95 725.00,320.00 725.00,313.05 725.00,306.32 725.00,300.00 725.00,294.29 725.00,289.36 725.00,285.36" stroke="black" stroke-width="1" fill="none" stroke-dasharray="3,3" />
<ellipse cx="763.00" cy="318.27" rx="4.00" ry="6.00" stroke="black" stroke-width="2" fill="none" />
<ellipse cx="687.00" cy="318.27" rx="4.00" ry="6.00" stroke="black" stroke-width="2" fill="none" />
<polyline points="763.00,318.27 757.00,353.18 725.00,383.77 693.00,353.18 687.00,318.27" stroke="black" stroke-width="2" fill="none"  />
<line x1="725.00" y1="383.77" x2="725.00" y2="343.71" stroke="black" stroke-width="1" stroke-dasharray="2,2" />
<line x1="757.00" y1="353.18" x2="725.00" y2="343.71" stroke="black" stroke-width="1" stroke-dasharray="2,2" />
<line x1="693.00" y1="353.18" x2="725.00" y2="343.71" stroke="black" stroke-width="1" stroke-dasharray="2,2" />
<circle cx="875.00" cy="320.00" r="40.00" stroke="black" stroke-width="2" fill="none" />
<polyline points="836.36,314.82 835.15,318.26 835.15,321.74 836.36,325.18 838.75,328.45 842.23,331.47 846.72,334.14 852.06,336.38 858.10,338.13 864.65,339.32 871.51,339.92 878.49,339.92 885.35,339.32 891.90,338.13 897.94,336.38 903.28,334.14 907.77,331.47 911.25,328.45 913.64,325.18" stroke="black" stroke-width="1" fill="none" stroke-dasharray="3,3" />
<polyline points="875.00,354.64 873.20,357.47 871.46,359.16 869.82,359.66 868.35,358.95 867.07,357.07 866.03,354.05 865.27,350.00 864.80,345.04 864.65,339.32 864.80,333.01 865.27,326.31 866.03,319.41 867.07,312.53 868.35,305.88 869.82,299.66 871.46,294.06 873.20,289.24 875.00,285.36" stroke="black" stroke-width="1" fill="none" stroke-dasharray="3,3" />
<ellipse cx="911.71" cy="323.19" rx="4.00" ry="6.00" stroke="black" stroke-width="2" fill="none" />
<ellipse cx="838.29" cy="313.35" rx="4.00" ry="6.00" stroke="black" stroke-width="2" fill="none" />
<polyline points="911.71,323.19 904.87,357.25 866.20,383.19 843.06,348.97 838.29,313.35" stroke="black" stroke-width="2" fill="none"  />
<line x1="866.20" y1="383.19" x2="877.07" y2="343.85" stroke="black" stroke-width="1" stroke-dasharray="2,2" />
<line x1="904.87" y1="357.25" x2="877.07" y2="343.85" stroke="black" stroke-width="1" stroke-dasharray="2,2" />
<line x1="843.06" y1="348.97" x2="877.07" y2="343.85" stroke="black" stroke-width="1" stroke-dasharray="2,2" />
<circle cx="1025.00" cy="320.00" r="40.00" stroke="black" stroke-width="2" fill="none" />
<polyline points="990.36,310.00 987.41,313.16 985.61,316.53 985.00,320.00 985.61,323.47 987.41,326.84 990.36,330.00 994.36,332.86 999.29,335.32 1005.00,337.32 1011.32,338.79 1018.05,339.70 1025.00,340.00 1031.95,339.70 1038.68,338.79 1045.00,337.32 1050.71,335.32 1055.64,332.86 1059.64,330.00" stroke="black" stroke-width="1" fill="none" stroke-dasharray="3,3" />
<polyline points="1025.00,354.64 1021.53,357.12 1018.16,358.48 1015.00,358.66 1012.14,357.67 1009.68,355.54 1007.68,352.32 1006.21,348.12 1005.30,343.07 1005.00,337.32 1005.30,331.04 1006.21,324.43 1007.68,317.68 1009.68,311.00 1012.14,304.60 1015.00,298.66 1018.16,293.37 1021.53,288.89 1025.00,285.36" stroke="black" stroke-width="1" fill="none" stroke-dasharray="3,3" />
<ellipse cx="1057.91" cy="327.77" rx="4.00" ry="6.00" stroke="black" stroke-width="2" fill="none" />
<ellipse cx="992.09" cy="308.77" rx="4.00" ry="6.00" stroke="black" stroke-width="2" fill="none" />
<polyline points="1057.91,327.77 1050.71,360.91 1008.00,381.49 995.29,344.91 992.09,308.77" stroke="black" stroke-width="2" fill="none"  />
<line x1="1008.00" y1="381.49" x2="1029.00" y2="344.25" stroke="black" stroke-width="1" stroke-dasharray="2,2" />
<line x1="1050.71" y1="360.91" x2="1029.00" y2="344.25" stroke="black" stroke-width="1" stroke-dasharray="2,2" />
<line x1="995.29" y1="344.91" x2="1029.00" y2="344.25" stroke="black" stroke-width="1" stroke-dasharray="2,2" />
<circle cx="1175.00" cy="320.00" r="40.00" stroke="black" stroke-width="2" fill="none" />
<polyline points="1146.72,305.86 1142.23,308.53 1138.75,311.55 1136.36,314.82 1135.15,318.26 1135.15,321.74 1136.36,325.18 1138.75,328.45 1142.23,331.47 1146.72,334.14 1152.06,336.38 1158.10,338.13 1164.65,339.32 1171.51,339.92 1178.49,339.92 1185.35,339.32 1191.90,338.13 1197.94,336.38 1203.28,334.14" stroke="black" stroke-width="1" fill="none" stroke-dasharray="3,3" />
<polyline points="1175.00,354.64 1170.09,356.57 1165.33,357.39 1160.86,357.07 1156.82,355.63 1153.33,353.10 1150.51,349.57 1148.42,345.14 1147.15,339.94 1146.72,334.14 1147.15,327.91 1148.42,321.44 1150.51,314.93 1153.33,308.57 1156.82,302.55 1160.86,297.07 1165.33,292.28 1170.09,288.34 1175.00,285.36" stroke="black" stroke-width="1" fill="none" stroke-dasharray="3,3" />
<ellipse cx="1201.87" cy="331.70" rx="4.00" ry="6.00" stroke="black" stroke-width="2" fill="none" />
<ellipse cx="1148.13" cy="304.83" rx="4.00" ry="6.00" stroke="black" stroke-width="2" fill="none" />
<polyline points="1201.87,331.70 1194.80,363.90 1150.96,378.79 1149.54,341.28 1148.13,304.83" stroke="black" stroke-width="2" fill="none"  />
<line x1="1150.96" y1="378.79" x2="1180.66" y2="344.88" stroke="black" stroke-width="1" stroke-dasharray="2,2" />
<line x1="1194.80" y1="363.90" x2="1180.66" y2="344.88" stroke="black" stroke-width="1" stroke-dasharray="2,2" />
<line x1="1149.54" y1="341.28" x2="1180.66" y2="344.88" stroke="black" stroke-width="1" stroke-dasharray="2,2" />
<circle cx="1325.00" cy="320.00" r="40.00" stroke="black" stroke-width="2" fill="none" />
<polyline points="1305.00,302.68 1299.29,304.68 1294.36,307.14 1290.36,310.00 1287.41,313.16 1285.61,316.53 1285.00,320.00 1285.61,323.47 1287.41,326.84 1290.36,330.00 1294.36,332.86 1299.29,335.32 1305.00,337.32 1311.32,338.79 1318.05,339.70 1325.00,340.00 1331.95,339.70 1338.68,338.79 1345.00,337.32" stroke="black" stroke-width="1" fill="none" stroke-dasharray="3,3" />
<polyline points="1325.00,354.64 1318.98,355.85 1313.15,355.97 1307.68,355.00 1302.73,352.96 1298.46,349.93 1295.00,345.98 1292.45,341.24 1290.89,335.86 1290.36,330.00 1290.89,323.83 1292.45,317.55 1295.00,311.34 1298.46,305.39 1302.73,299.89 1307.68,295.00 1313.15,290.87 1318.98,287.62 1325.00,285.36" stroke="black" stroke-width="1" fill="none" stroke-dasharray="3,3" />
<ellipse cx="1344.00" cy="334.72" rx="4.00" ry="6.00" stroke="black" stroke-width="2" fill="none" />
<polyline points="1344.00,334.72 1337.54,366.03 1295.56,375.27 1305.54,338.32 1306.00,301.81" stroke="black" stroke-width="2" fill="none"  />
<line x1="1295.56" y1="375.27" x2="1331.93" y2="345.71" stroke="black" stroke-width="1" stroke-dasharray="2,2" />
<line x1="1337.54" y1="366.03" x2="1331.93" y2="345.71" stroke="black" stroke-width="1" stroke-dasharray="2,2" />
<line x1="1305.54" y1="338.32" x2="1331.93" y2="345.71" stroke="black" stroke-width="1" stroke-dasharray="2,2" />
<circle cx="125.00" cy="500.00" r="40.00" stroke="black" stroke-width="2" fill="none" />
<polyline points="105.00,508.97 111.32,509.73 118.05,510.20 125.00,510.35 131.95,510.20 138.68,509.73 145.00,508.97 150.71,507.93 155.64,506.65 159.64,505.18 162.59,503.54 164.39,501.80 165.00,500.00 164.39,498.20 162.59,496.46 159.64,494.82 155.64,493.35 150.71,492.07 145.00,491.03" stroke="black" stroke-width="1" fill="none" stroke-dasharray="3,3" />
<polyline points="125.00,538.64 131.02,538.95 136.85,538.08 142.32,536.05 147.27,532.92 151.54,528.80 155.00,523.80 157.55,518.08 159.11,511.81 159.64,505.18 159.11,498.39 157.55,491.65 155.00,485.16 151.54,479.13 147.27,473.73 142.32,469.13 136.85,465.46 131.02,462.85 125.00,461.36" stroke="black" stroke-width="1" fill="none" stroke-dasharray="3,3" />
<ellipse cx="106.00" cy="506.59" rx="4.00" ry="6.00" stroke="black" stroke-width="2" fill="none" />
<polyline points="144.00,489.55 144.46,528.12 154.44,556.56 112.46,542.46 106.00,506.59" stroke="black" stroke-width="2" fill="none"  />
<line x1="154.44" y1="556.56" x2="118.07" y2="529.87" stroke="black" stroke-width="1" stroke-dasharray="2,2" />
<line x1="144.46" y1="528.12" x2="118.07" y2="529.87" stroke="black" stroke-width="1" stroke-dasharray="2,2" />
<line x1="112.46" y1="542.46" x2="118.07" y2="529.87" stroke="black" stroke-width="1" stroke-dasharray="2,2" />
<circle cx="275.00" cy="500.00" r="40.00" stroke="black" stroke-width="2" fill="none" />
<polyline points="246.72,507.32 252.06,508.48 258.10,509.38 264.65,510.00 271.51,510.31 278.49,510.31 285.35,510.00 291.90,509.38 297.94,508.48 303.28,507.32 307.77,505.94 311.25,504.38 313.64,502.68 314.85,500.90 314.85,499.10 313.64,497.32 311.25,495.62 307.77,494.06 303.28,492.68" stroke="black" stroke-width="1" fill="none" stroke-dasharray="3,3" />
<polyline points="275.00,538.64 279.91,539.32 284.67,538.81 289.14,537.12 293.18,534.30 296.67,530.44 299.49,525.66 301.58,520.09 302.85,513.92 303.28,507.32 302.85,500.50 301.58,493.66 299.49,487.02 296.67,480.77 293.18,475.11 289.14,470.20 284.67,466.20 279.91,463.22 275.00,461.36" stroke="black" stroke-width="1" fill="none" stroke-dasharray="3,3" />
<ellipse cx="301.87" cy="491.11" rx="4.00" ry="6.00" stroke="black" stroke-width="2" fill="none" />
<ellipse cx="248.13" cy="505.02" rx="4.00" ry="6.00" stroke="black" stroke-width="2" fill="none" />
<polyline points="301.87,491.11 300.46,529.65 299.04,558.38 255.20,541.36 248.13,505.02" stroke="black" stroke-width="2" fill="none"  />
<line x1="299.04" y1="558.38" x2="269.34" y2="529.45" stroke="black" stroke-width="1" stroke-dasharray="2,2" />
<line x1="300.46" y1="529.65" x2="269.34" y2="529.45" stroke="black" stroke-width="1" stroke-dasharray="2,2" />
<line x1="255.20" y1="541.36" x2="269.34" y2="529.45" stroke="black" stroke-width="1" stroke-dasharray="2,2" />
<circle cx="425.00" cy="500.00" r="40.00" stroke="black" stroke-width="2" fill="none" />
<polyline points="390.36,505.18 394.36,506.65 399.29,507.93 405.00,508.97 411.32,509.73 418.05,510.20 425.00,510.35 431.95,510.20 438.68,509.73 445.00,508.97 450.71,507.93 455.64,506.65 459.64,505.18 462.59,503.54 464.39,501.80 465.00,500.00 464.39,498.20 462.59,496.46 459.64,494.82" stroke="black" stroke-width="1" fill="none" stroke-dasharray="3,3" />
<polyline points="425.00,538.64 428.47,539.61 431.84,539.37 435.00,537.94 437.86,535.36 440.32,531.70 442.32,527.08 443.79,521.64 444.70,515.54 445.00,508.97 444.70,502.12 443.79,495.21 442.32,488.45 440.32,482.03 437.86,476.17 435.00,471.02 431.84,466.76 428.47,463.51 425.00,461.36" stroke="black" stroke-width="1" fill="none" stroke-dasharray="3,3" />
<ellipse cx="457.91" cy="493.15" rx="4.00" ry="6.00" stroke="black" stroke-width="2" fill="none" />
<ellipse cx="392.09" cy="502.99" rx="4.00" ry="6.00" stroke="black" stroke-width="2" fill="none" />
<polyline points="457.91,493.15 454.71,531.53 442.00,559.78 399.29,539.81 392.09,502.99" stroke="black" stroke-width="2" fill="none"  />
<line x1="442.00" y1="559.78" x2="421.00" y2="529.12" stroke="black" stroke-width="1" stroke-dasharray="2,2" />
<line x1="454.71" y1="531.53" x2="421.00" y2="529.12" stroke="black" stroke-width="1" stroke-dasharray="2,2" />
<line x1="399.29" y1="539.81" x2="421.00" y2="529.12" stroke="black" stroke-width="1" stroke-dasharray="2,2" />
<circle cx="575.00" cy="500.00" r="40.00" stroke="black" stroke-width="2" fill="none" />
<polyline points="536.36,502.68 538.75,504.38 542.23,505.94 546.72,507.32 552.06,508.48 558.10,509.38 564.65,510.00 571.51,510.31 578.49,510.31 585.35,510.00 591.90,509.38 597.94,508.48 603.28,507.32 607.77,505.94 611.25,504.38 613.64,502.68 614.85,500.90 614.85,499.10 613.64,497.32" stroke="black" stroke-width="1" fill="none" stroke-dasharray="3,3" />
<polyline points="575.00,538.64 576.80,539.79 578.54,539.73 580.18,538.46 581.65,536.03 582.93,532.50 583.97,527.98 584.73,522.61 585.20,516.56 585.35,510.00 585.20,503.14 584.73,496.18 583.97,489.34 582.93,482.83 581.65,476.83 580.18,471.54 578.54,467.11 576.80,463.69 575.00,461.36" stroke="black" stroke-width="1" fill="none" stroke-dasharray="3,3" />
<ellipse cx="611.71" cy="495.52" rx="4.00" ry="6.00" stroke="black" stroke-width="2" fill="none" />
<ellipse cx="538.29" cy="500.61" rx="4.00" ry="6.00" stroke="black" stroke-width="2" fill="none" />
<polyline points="611.71,495.52 606.94,533.63 583.80,560.66 545.13,537.92 538.29,500.61" stroke="black" stroke-width="2" fill="none"  />
<line x1="583.80" y1="560.66" x2="572.93" y2="528.91" stroke="black" stroke-width="1" stroke-dasharray="2,2" />
<line x1="606.94" y1="533.63" x2="572.93" y2="528.91" stroke="black" stroke-width="1" stroke-dasharray="2,2" />
<line x1="545.13" y1="537.92" x2="572.93" y2="528.91" stroke="black" stroke-width="1" stroke-dasharray="2,2" />
<circle cx="725.00" cy="500.00" r="40.00" stroke="black" stroke-width="2" fill="none" />
<polyline points="685.00,500.00 685.61,501.80 687.41,503.54 690.36,505.18 694.36,506.65 699.29,507.93 705.00,508.97 711.32,509.73 718.05,510.20 725.00,510.35 731.95,510.20 738.68,509.73 745.00,508.97 750.71,507.93 755.64,506.65 759.64,505.18 762.59,503.54 764.39,501.80 765.00,500.00" stroke="black" stroke-width="1" fill="none" stroke-dasharray="3,3" />
<polyline points="725.00,538.64 725.00,539.85 725.00,539.85 725.00,538.64 725.00,536.25 725.00,532.77 725.00,528.28 725.00,522.94 725.00,516.90 725.00,510.35 725.00,503.49 725.00,496.51 725.00,489.65 725.00,483.10 725.00,477.06 725.00,471.72 725.00,467.23 725.00,463.75 725.00,461.36" stroke="black" stroke-width="1" fill="none" stroke-dasharray="3,3" />
<ellipse cx="763.00" cy="498.07" rx="4.00" ry="6.00" stroke="black" stroke-width="2" fill="none" />
<ellipse cx="687.00" cy="498.07" rx="4.00" ry="6.00" stroke="black" stroke-width="2" fill="none" />
<polyline points="763.00,498.07 757.00,535.81 725.00,560.96 693.00,535.81 687.00,498.07" stroke="black" stroke-width="2" fill="none"  />
<line x1="725.00" y1="560.96" x2="725.00" y2="528.84" stroke="black" stroke-width="1" stroke-dasharray="2,2" />
<line x1="757.00" y1="535.81" x2="725.00" y2="528.84" stroke="black" stroke-width="1" stroke-dasharray="2,2" />
<line x1="693.00" y1="535.81" x2="725.00" y2="528.84" stroke="black" stroke-width="1" stroke-dasharray="2,2" />
<circle cx="875.00" cy="500.00" r="40.00" stroke="black" stroke-width="2" fill="none" />
<polyline points="836.36,497.32 835.15,499.10 835.15,500.90 836.36,502.68 838.75,504.38 842.23,505.94 846.72,507.32 852.06,508.48 858.10,509.38 864.65,510.00 871.51,510.31 878.49,510.31 885.35,510.00 891.90,509.38 897.94,508.48 903.28,507.32 907.77,505.94 911.25,504.38 913.64,502.68" stroke="black" stroke-width="1" fill="none" stroke-dasharray="3,3" />
<polyline points="875.00,538.64 873.20,539.79 871.46,539.73 869.82,538.46 868.35,536.03 867.07,532.50 866.03,527.98 865.27,522.61 864.80,516.56 864.65,510.00 864.80,503.14 865.27,496.18 866.03,489.34 867.07,482.83 868.35,476.83 869.82,471.54 871.46,467.11 873.20,463.69 875.00,461.36" stroke="black" stroke-width="1" fill="none" stroke-dasharray="3,3" />
<ellipse cx="911.71" cy="500.61" rx="4.00" ry="6.00" stroke="black" stroke-width="2" fill="none" />
<ellipse cx="838.29" cy="495.52" rx="4.00" ry="6.00" stroke="black" stroke-width="2" fill="none" />
<polyline points="911.71,500.61 904.87,537.92 866.20,560.66 843.06,533.63 838.29,495.52" stroke="black" stroke-width="2" fill="none"  />
<line x1="866.20" y1="560.66" x2="877.07" y2="528.91" stroke="black" stroke-width="1" stroke-dasharray="2,2" />
<line x1="904.87" y1="537.92" x2="877.07" y2="528.91" stroke="black" stroke-width="1" stroke-dasharray="2,2" />
<line x1="843.06" y1="533.63" x2="877.07" y2="528.91" stroke="black" stroke-width="1" stroke-dasharray="2,2" />
<circle cx="1025.00" cy="500.00" r="40.00" stroke="black" stroke-width="2" fill="none" />
<polyline points="990.36,494.82 987.41,496.46 985.61,498.20 985.00,500.00 985.61,501.80 987.41,503.54 990.36,505.18 994.36,506.65 999.29,507.93 1005.00,508.97 1011.32,509.73 1018.05,510.20 1025.00,510.35 1031.95,510.20 1038.68,509.73 1045.00,508.97 1050.71,507.93 1055.64,506.65 1059.64,505.18" stroke="black" stroke-width="1" fill="none" stroke-dasharray="3,3" />
<polyline points="1025.00,538.64 1021.53,539.61 1018.16,539.37 1015.00,537.94 1012.14,535.36 1009.68,531.70 1007.68,527.08 1006.21,521.64 1005.30,515.54 1005.00,508.97 1005.30,502.12 1006.21,495.21 1007.68,488.45 1009.68,482.03 1012.14,476.17 1015.00,471.02 1018.16,466.76 1021.53,463.51 1025.00,461.36" stroke="black" stroke-width="1" fill="none" stroke-dasharray="3,3" />
<ellipse cx="1057.91" cy="502.99" rx="4.00" ry="6.00" stroke="black" stroke-width="2" fill="none" />
<ellipse cx="992.09" cy="493.15" rx="4.00" ry="6.00" stroke="black" stroke-width="2" fill="none" />
<polyline points="1057.91,502.99 1050.71,539.81 1008.00,559.78 995.29,531.53 992.09,493.15" stroke="black" stroke-width="2" fill="none"  />
<line x1="1008.00" y1="559.78" x2="1029.00" y2="529.12" stroke="black" stroke-width="1" stroke-dasharray="2,2" />
<line x1="1050.71" y1="539.81" x2="1029.00" y2="529.12" stroke="black" stroke-width="1" stroke-dasharray="2,2" />
<line x1="995.29" y1="531.53" x2="1029.00" y2="529.12" stroke="black" stroke-width="1" stroke-dasharray="2,2" />
<circle cx="1175.00" cy="500.00" r="40.00" stroke="black" stroke-width="2" fill="none" />
<polyline points="1146.72,492.68 1142.23,494.06 1138.75,495.62 1136.36,497.32 1135.15,499.10 1135.15,500.90 1136.36,502.68 1138.75,504.38 1142.23,505.94 1146.72,507.32 1152.06,508.48 1158.10,509.38 1164.65,510.00 1171.51,510.31 1178.49,510.31 1185.35,510.00 1191.90,509.38 1197.94,508.48 1203.28,507.32" stroke="black" stroke-width="1" fill="none" stroke-dasharray="3,3" />
<polyline points="1175.00,538.64 1170.09,539.32 1165.33,538.81 1160.86,537.12 1156.82,534.30 1153.33,530.44 1150.51,525.66 1148.42,520.09 1147.15,513.92 1146.72,507.32 1147.15,500.50 1148.42,493.66 1150.51,487.02 1153.33,480.77 1156.82,475.11 1160.86,470.20 1165.33,466.20 1170.09,463.22 1175.00,461.36" stroke="black" stroke-width="1" fill="none" stroke-dasharray="3,3" />
<ellipse cx="1201.87" cy="505.02" rx="4.00" ry="6.00" stroke="black" stroke-width="2" fill="none" />
<ellipse cx="1148.13" cy="491.11" rx="4.00" ry="6.00" stroke="black" stroke-width="2" fill="none" />
<polyline points="1201.87,505.02 1194.80,541.36 1150.96,558.38 1149.54,529.65 1148.13,491.11" stroke="black" stroke-width="2" fill="none"  />
<line x1="1150.96" y1="558.38" x2="1180.66" y2="529.45" stroke="black" stroke-width="1" stroke-dasharray="2,2" />
<line x1="1194.80" y1="541.36" x2="1180.66" y2="529.45" stroke="black" stroke-width="1" stroke-dasharray="2,2" />
<line x1="1149.54" y1="529.65" x2="1180.66" y2="529.45" stroke="black" stroke-width="1" stroke-dasharray="2,2" />
<circle cx="1325.00" cy="500.00" r="40.00" stroke="black" stroke-width="2" fill="none" />
<polyline points="1305.00,491.03 1299.29,492.07 1294.36,493.35 1290.36,494.82 1287.41,496.46 1285.61,498.20 1285.00,500.00 1285.61,501.80 1287.41,503.54 1290.36,505.18 1294.36,506.65 1299.29,507.93 1305.00,508.97 1311.32,509.73 1318.05,510.20 1325.00,510.35 1331.95,510.20 1338.68,509.73 1345.00,508.97" stroke="black" stroke-width="1" fill="none" stroke-dasharray="3,3" />
<polyline points="1325.00,538.64 1318.98,538.95 1313.15,538.08 1307.68,536.05 1302.73,532.92 1298.46,528.80 1295.00,523.80 1292.45,518.08 1290.89,511.81 1290.36,505.18 1290.89,498.39 1292.45,491.65 1295.00,485.16 1298.46,479.13 1302.73,473.73 1307.68,469.13 1313.15,465.46 1318.98,462.85 1325.00,461.36" stroke="black" stroke-width="1" fill="none" stroke-dasharray="3,3" />
<ellipse cx="1344.00" cy="506.59" rx="4.00" ry="6.00" stroke="black" stroke-width="2" fill="none" />
<polyline points="1344.00,506.59 1337.54,542.46 1295.56,556.56 1305.54,528.12 1306.00,489.55" stroke="black" stroke-width="2" fill="none"  />
<line x1="1295.56" y1="556.56" x2="1331.93" y2="529.87" stroke="black" stroke-width="1" stroke-dasharray="2,2" />
<line x1="1337.54" y1="542.46" x2="1331.93" y2="529.87" stroke="black" stroke-width="1" stroke-dasharray="2,2" />
<line x1="1305.54" y1="528.12" x2="1331.93" y2="529.87" stroke="black" stroke-width="1" stroke-dasharray="2,2" />
<circle cx="125.00" cy="680.00" r="40.00" stroke="black" stroke-width="2" fill="none" />
<polyline points="105.00,680.00 111.32,680.00 118.05,680.00 125.00,680.00 131.95,680.00 138.68,680.00 145.00,680.00 150.71,680.00 155.64,680.00 159.64,680.00 162.59,680.00 164.39,680.00 165.00,680.00 164.39,680.00 162.59,680.00 159.64,680.00 155.64,680.00 150.71,680.00 145.00,680.00" stroke="black" stroke-width="1" fill="none" stroke-dasharray="3,3" />
<polyline points="125.00,720.00 131.02,719.39 136.85,717.59 142.32,714.64 147.27,710.64 151.54,705.71 155.00,700.00 157.55,693.68 159.11,686.95 159.64,680.00 159.11,673.05 157.55,666.32 155.00,660.00 151.54,654.29 147.27,649.36 142.32,645.36 136.85,642.41 131.02,640.61 125.00,640.00" stroke="black" stroke-width="1" fill="none" stroke-dasharray="3,3" />
<ellipse cx="106.00" cy="678.00" rx="4.00" ry="6.00" stroke="black" stroke-width="2" fill="none" />
<polyline points="144.00,678.00 144.46,716.00 154.44,734.00 112.46,716.00 106.00,678.00" stroke="black" stroke-width="2" fill="none"  />
<circle cx="275.00" cy="680.00" r="40.00" stroke="black" stroke-width="2" fill="none" />
<polyline points="246.72,680.00 252.06,680.00 258.10,680.00 264.65,680.00 271.51,680.00 278.49,680.00 285.35,680.00 291.90,680.00 297.94,680.00 303.28,680.00 307.77,680.00 311.25,680.00 313.64,680.00 314.85,680.00 314.85,680.00 313.64,680.00 311.25,680.00 307.77,680.00 303.28,680.00" stroke="black" stroke-width="1" fill="none" stroke-dasharray="3,3" />
<polyline points="275.00,720.00 279.91,719.39 284.67,717.59 289.14,714.64 293.18,710.64 296.67,705.71 299.49,700.00 301.58,693.68 302.85,686.95 303.28,680.00 302.85,673.05 301.58,666.32 299.49,660.00 296.67,654.29 293.18,649.36 289.14,645.36 284.67,642.41 279.91,640.61 275.00,640.00" stroke="black" stroke-width="1" fill="none" stroke-dasharray="3,3" />
<ellipse cx="301.87" cy="678.00" rx="4.00" ry="6.00" stroke="black" stroke-width="2" fill="none" />
<ellipse cx="248.13" cy="678.00" rx="4.00" ry="6.00" stroke="black" stroke-width="2" fill="none" />
<polyline points="301.87,678.00 300.46,716.00 299.04,734.00 255.20,716.00 248.13,678.00" stroke="black" stroke-width="2" fill="none"  />
<circle cx="425.00" cy="680.00" r="40.00" stroke="black" stroke-width="2" fill="none" />
<polyline points="390.36,680.00 394.36,680.00 399.29,680.00 405.00,680.00 411.32,680.00 418.05,680.00 425.00,680.00 431.95,680.00 438.68,680.00 445.00,680.00 450.71,680.00 455.64,680.00 459.64,680.00 462.59,680.00 464.39,680.00 465.00,680.00 464.39,680.00 462.59,680.00 459.64,680.00" stroke="black" stroke-width="1" fill="none" stroke-dasharray="3,3" />
<polyline points="425.00,720.00 428.47,719.39 431.84,717.59 435.00,714.64 437.86,710.64 440.32,705.71 442.32,700.00 443.79,693.68 444.70,686.95 445.00,680.00 444.70,673.05 443.79,666.32 442.32,660.00 440.32,654.29 437.86,649.36 435.00,645.36 431.84,642.41 428.47,640.61 425.00,640.00" stroke="black" stroke-width="1" fill="none" stroke-dasharray="3,3" />
<ellipse cx="457.91" cy="678.00" rx="4.00" ry="6.00" stroke="black" stroke-width="2" fill="none" />
<ellipse cx="392.09" cy="678.00" rx="4.00" ry="6.00" stroke="black" stroke-width="2" fill="none" />
<polyline points="457.91,678.00 454.71,716.00 442.00,734.00 399.29,716.00 392.09,678.00" stroke="black" stroke-width="2" fill="none"  />
<circle cx="575.00" cy="680.00" r="40.00" stroke="black" stroke-width="2" fill="none" />
<polyline points="536.36,680.00 538.75,680.00 542.23,680.00 546.72,680.00 552.06,680.00 558.10,680.00 564.65,680.00 571.51,680.00 578.49,680.00 585.35,680.00 591.90,680.00 597.94,680.00 603.28,680.00 607.77,680.00 611.25,680.00 613.64,680.00 614.85,680.00 614.85,680.00 613.64,680.00" stroke="black" stroke-width="1" fill="none" stroke-dasharray="3,3" />
<polyline points="575.00,720.00 576.80,719.39 578.54,717.59 580.18,714.64 581.65,710.64 582.93,705.71 583.97,700.00 584.73,693.68 585.20,686.95 585.35,680.00 585.20,673.05 584.73,666.32 583.97,660.00 582.93,654.29 581.65,649.36 580.18,645.36 578.54,642.41 576.80,640.61 575.00,640.00" stroke="black" stroke-width="1" fill="none" stroke-dasharray="3,3" />
<ellipse cx="611.71" cy="678.00" rx="4.00" ry="6.00" stroke="black" stroke-width="2" fill="none" />
<ellipse cx="538.29" cy="678.00" rx="4.00" ry="6.00" stroke="black" stroke-width="2" fill="none" />
<polyline points="611.71,678.00 606.94,716.00 583.80,734.00 545.13,716.00 538.29,678.00" stroke="black" stroke-width="2" fill="none"  />
<circle cx="725.00" cy="680.00" r="40.00" stroke="black" stroke-width="2" fill="none" />
<polyline points="685.00,680.00 685.61,680.00 687.41,680.00 690.36,680.00 694.36,680.00 699.29,680.00 705.00,680.00 711.32,680.00 718.05,680.00 725.00,680.00 731.95,680.00 738.68,680.00 745.00,680.00 750.71,680.00 755.64,680.00 759.64,680.00 762.59,680.00 764.39,680.00 765.00,680.00" stroke="black" stroke-width="1" fill="none" stroke-dasharray="3,3" />
<polyline points="725.00,720.00 725.00,719.39 725.00,717.59 725.00,714.64 725.00,710.64 725.00,705.71 725.00,700.00 725.00,693.68 725.00,686.95 725.00,680.00 725.00,673.05 725.00,666.32 725.00,660.00 725.00,654.29 725.00,649.36 725.00,645.36 725.00,642.41 725.00,640.61 725.00,640.00" stroke="black" stroke-width="1" fill="none" stroke-dasharray="3,3" />
<ellipse cx="763.00" cy="678.00" rx="4.00" ry="6.00" stroke="black" stroke-width="2" fill="none" />
<ellipse cx="687.00" cy="678.00" rx="4.00" ry="6.00" stroke="black" stroke-width="2" fill="none" />
<polyline points="763.00,678.00 757.00,716.00 725.00,734.00 693.00,716.00 687.00,678.00" stroke="black" stroke-width="2" fill="none"  />
<circle cx="875.00" cy="680.00" r="40.00" stroke="black" stroke-width="2" fill="none" />
<polyline points="836.36,680.00 835.15,680.00 835.15,680.00 836.36,680.00 838.75,680.00 842.23,680.00 846.72,680.00 852.06,680.00 858.10,680.00 864.65,680.00 871.51,680.00 878.49,680.00 885.35,680.00 891.90,680.00 897.94,680.00 903.28,680.00 907.77,680.00 911.25,680.00 913.64,680.00" stroke="black" stroke-width="1" fill="none" stroke-dasharray="3,3" />
<polyline points="875.00,720.00 873.20,719.39 871.46,717.59 869.82,714.64 868.35,710.64 867.07,705.71 866.03,700.00 865.27,693.68 864.80,686.95 864.65,680.00 864.80,673.05 865.27,666.32 866.03,660.00 867.07,654.29 868.35,649.36 869.82,645.36 871.46,642.41 873.20,640.61 875.00,640.00" stroke="black" stroke-width="1" fill="none" stroke-dasharray="3,3" />
<ellipse cx="911.71" cy="678.00" rx="4.00" ry="6.00" stroke="black" stroke-width="2" fill="none" />
<ellipse cx="838.29" cy="678.00" rx="4.00" ry="6.00" stroke="black" stroke-width="2" fill="none" />
<polyline points="911.71,678.00 904.87,716.00 866.20,734.00 843.06,716.00 838.29,678.00" stroke="black" stroke-width="2" fill="none"  />
<circle cx="1025.00" cy="680.00" r="40.00" stroke="black" stroke-width="2" fill="none" />
<polyline points="990.36,680.00 987.41,680.00 985.61,680.00 985.00,680.00 985.61,680.00 987.41,680.00 990.36,680.00 994.36,680.00 999.29,680.00 1005.00,680.00 1011.32,680.00 1018.05,680.00 1025.00,680.00 1031.95,680.00 1038.68,680.00 1045.00,680.00 1050.71,680.00 1055.64,680.00 1059.64,680.00" stroke="black" stroke-width="1" fill="none" stroke-dasharray="3,3" />
<polyline points="1025.00,720.00 1021.53,719.39 1018.16,717.59 1015.00,714.64 1012.14,710.64 1009.68,705.71 1007.68,700.00 1006.21,693.68 1005.30,686.95 1005.00,680.00 1005.30,673.05 1006.21,666.32 1007.68,660.00 1009.68,654.29 1012.14,649.36 1015.00,645.36 1018.16,642.41 1021.53,640.61 1025.00,640.00" stroke="black" stroke-width="1" fill="none" stroke-dasharray="3,3" />
<ellipse cx="1057.91" cy="678.00" rx="4.00" ry="6.00" stroke="black" stroke-width="2" fill="none" />
<ellipse cx="992.09" cy="678.00" rx="4.00" ry="6.00" stroke="black" stroke-width="2" fill="none" />
<polyline points="1057.91,678.00 1050.71,716.00 1008.00,734.00 995.29,716.00 992.09,678.00" stroke="black" stroke-width="2" fill="none"  />
<circle cx="1175.00" cy="680.00" r="40.00" stroke="black" stroke-width="2" fill="none" />
<polyline points="1146.72,680.00 1142.23,680.00 1138.75,680.00 1136.36,680.00 1135.15,680.00 1135.15,680.00 1136.36,680.00 1138.75,680.00 1142.23,680.00 1146.72,680.00 1152.06,680.00 1158.10,680.00 1164.65,680.00 1171.51,680.00 1178.49,680.00 1185.35,680.00 1191.90,680.00 1197.94,680.00 1203.28,680.00" stroke="black" stroke-width="1" fill="none" stroke-dasharray="3,3" />
<polyline points="1175.00,720.00 1170.09,719.39 1165.33,717.59 1160.86,714.64 1156.82,710.64 1153.33,705.71 1150.51,700.00 1148.42,693.68 1147.15,686.95 1146.72,680.00 1147.15,673.05 1148.42,666.32 1150.51,660.00 1153.33,654.29 1156.82,649.36 1160.86,645.36 1165.33,642.41 1170.09,640.61 1175.00,640.00" stroke="black" stroke-width="1" fill="none" stroke-dasharray="3,3" />
<ellipse cx="1201.87" cy="678.00" rx="4.00" ry="6.00" stroke="black" stroke-width="2" fill="none" />
<ellipse cx="1148.13" cy="678.00" rx="4.00" ry="6.00" stroke="black" stroke-width="2" fill="none" />
<polyline points="1201.87,678.00 1194.80,716.00 1150.96,734.00 1149.54,716.00 1148.13,678.00" stroke="black" stroke-width="2" fill="none"  />
<circle cx="1325.00" cy="680.00" r="40.00" stroke="black" stroke-width="2" fill="none" />
<polyline points="1305.00,680.00 1299.29,680.00 1294.36,680.00 1290.36,680.00 1287.41,680.00 1285.61,680.00 1285.00,680.00 1285.61,680.00 1287.41,680.00 1290.36,680.00 1294.36,680.00 1299.29,680.00 1305.00,680.00 1311.32,680.00 1318.05,680.00 1325.00,680.00 1331.95,680.00 1338.68,680.00 1345.00,680.00" stroke="black" stroke-width="1" fill="none" stroke-dasharray="3,3" />
<polyline points="1325.00,720.00 1318.98,719.39 1313.15,717.59 1307.68,714.64 1302.73,710.64 1298.46,705.71 1295.00,700.00 1292.45,693.68 1290.89,686.95 1290.36,680.00 1290.89,673.05 1292.45,666.32 1295.00,660.00 1298.46,654.29 1302.73,649.36 1307.68,645.36 1313.15,642.41 1318.98,640.61 1325.00,640.00" stroke="black" stroke-width="1" fill="none" stroke-dasharray="3,3" />
<ellipse cx="1344.00" cy="678.00" rx="4.00" ry="6.00" stroke="black" stroke-width="2" fill="none" />
<polyline points="1344.00,678.00 1337.54,716.00 1295.56,734.00 1305.54,716.00 1306.00,678.00" stroke="black" stroke-width="2" fill="none"  />
<circle cx="125.00" cy="860.00" r="40.00" stroke="black" stroke-width="2" fill="none" />
<polyline points="105.00,851.03 111.32,850.27 118.05,849.80 125.00,849.65 131.95,849.80 138.68,850.27 145.00,851.03 150.71,852.07 155.64,853.35 159.64,854.82 162.59,856.46 164.39,858.20 165.00,860.00 164.39,861.80 162.59,863.54 159.64,865.18 155.64,866.65 150.71,867.93 145.00,868.97" stroke="black" stroke-width="1" fill="none" stroke-dasharray="3,3" />
<polyline points="125.00,898.64 131.02,897.15 136.85,894.54 142.32,890.87 147.27,886.27 151.54,880.87 155.00,874.84 157.55,868.35 159.11,861.61 159.64,854.82 159.11,848.19 157.55,841.92 155.00,836.20 151.54,831.20 147.27,827.08 142.32,823.95 136.85,821.92 131.02,821.05 125.00,821.36" stroke="black" stroke-width="1" fill="none" stroke-dasharray="3,3" />
<ellipse cx="106.00" cy="849.55" rx="4.00" ry="6.00" stroke="black" stroke-width="2" fill="none" />
<polyline points="144.00,866.59 144.46,901.43 154.44,907.76 112.46,887.08 106.00,849.55" stroke="black" stroke-width="2" fill="none"  />
<circle cx="275.00" cy="860.00" r="40.00" stroke="black" stroke-width="2" fill="none" />
<polyline points="246.72,852.68 252.06,851.52 258.10,850.62 264.65,850.00 271.51,849.69 278.49,849.69 285.35,850.00 291.90,850.62 297.94,851.52 303.28,852.68 307.77,854.06 311.25,855.62 313.64,857.32 314.85,859.10 314.85,860.90 313.64,862.68 311.25,864.38 307.77,865.94 303.28,867.32" stroke="black" stroke-width="1" fill="none" stroke-dasharray="3,3" />
<polyline points="275.00,898.64 279.91,896.78 284.67,893.80 289.14,889.80 293.18,884.89 296.67,879.23 299.49,872.98 301.58,866.34 302.85,859.50 303.28,852.68 302.85,846.08 301.58,839.91 299.49,834.34 296.67,829.56 293.18,825.70 289.14,822.88 284.67,821.19 279.91,820.68 275.00,821.36" stroke="black" stroke-width="1" fill="none" stroke-dasharray="3,3" />
<ellipse cx="301.87" cy="865.02" rx="4.00" ry="6.00" stroke="black" stroke-width="2" fill="none" />
<ellipse cx="248.13" cy="851.11" rx="4.00" ry="6.00" stroke="black" stroke-width="2" fill="none" />
<polyline points="301.87,865.02 300.46,899.90 299.04,905.94 255.20,888.18 248.13,851.11" stroke="black" stroke-width="2" fill="none"  />
<circle cx="425.00" cy="860.00" r="40.00" stroke="black" stroke-width="2" fill="none" />
<polyline points="390.36,854.82 394.36,853.35 399.29,852.07 405.00,851.03 411.32,850.27 418.05,849.80 425.00,849.65 431.95,849.80 438.68,850.27 445.00,851.03 450.71,852.07 455.64,853.35 459.64,854.82 462.59,856.46 464.39,858.20 465.00,860.00 464.39,861.80 462.59,863.54 459.64,865.18" stroke="black" stroke-width="1" fill="none" stroke-dasharray="3,3" />
<polyline points="425.00,898.64 428.47,896.49 431.84,893.24 435.00,888.98 437.86,883.83 440.32,877.97 442.32,871.55 443.79,864.79 444.70,857.88 445.00,851.03 444.70,844.46 443.79,838.36 442.32,832.92 440.32,828.30 437.86,824.64 435.00,822.06 431.84,820.63 428.47,820.39 425.00,821.36" stroke="black" stroke-width="1" fill="none" stroke-dasharray="3,3" />
<ellipse cx="457.91" cy="862.99" rx="4.00" ry="6.00" stroke="black" stroke-width="2" fill="none" />
<ellipse cx="392.09" cy="853.15" rx="4.00" ry="6.00" stroke="black" stroke-width="2" fill="none" />
<polyline points="457.91,862.99 454.71,898.02 442.00,904.54 399.29,889.74 392.09,853.15" stroke="black" stroke-width="2" fill="none"  />
<circle cx="575.00" cy="860.00" r="40.00" stroke="black" stroke-width="2" fill="none" />
<polyline points="536.36,857.32 538.75,855.62 542.23,854.06 546.72,852.68 552.06,851.52 558.10,850.62 564.65,850.00 571.51,849.69 578.49,849.69 585.35,850.00 591.90,850.62 597.94,851.52 603.28,852.68 607.77,854.06 611.25,855.62 613.64,857.32 614.85,859.10 614.85,860.90 613.64,862.68" stroke="black" stroke-width="1" fill="none" stroke-dasharray="3,3" />
<polyline points="575.00,898.64 576.80,896.31 578.54,892.89 580.18,888.46 581.65,883.17 582.93,877.17 583.97,870.66 584.73,863.82 585.20,856.86 585.35,850.00 585.20,843.44 584.73,837.39 583.97,832.02 582.93,827.50 581.65,823.97 580.18,821.54 578.54,820.27 576.80,820.21 575.00,821.36" stroke="black" stroke-width="1" fill="none" stroke-dasharray="3,3" />
<ellipse cx="611.71" cy="860.61" rx="4.00" ry="6.00" stroke="black" stroke-width="2" fill="none" />
<ellipse cx="538.29" cy="855.52" rx="4.00" ry="6.00" stroke="black" stroke-width="2" fill="none" />
<polyline points="611.71,860.61 606.94,895.92 583.80,903.66 545.13,891.63 538.29,855.52" stroke="black" stroke-width="2" fill="none"  />
<circle cx="725.00" cy="860.00" r="40.00" stroke="black" stroke-width="2" fill="none" />
<polyline points="685.00,860.00 685.61,858.20 687.41,856.46 690.36,854.82 694.36,853.35 699.29,852.07 705.00,851.03 711.32,850.27 718.05,849.80 725.00,849.65 731.95,849.80 738.68,850.27 745.00,851.03 750.71,852.07 755.64,853.35 759.64,854.82 762.59,856.46 764.39,858.20 765.00,860.00" stroke="black" stroke-width="1" fill="none" stroke-dasharray="3,3" />
<polyline points="725.00,898.64 725.00,896.25 725.00,892.77 725.00,888.28 725.00,882.94 725.00,876.90 725.00,870.35 725.00,863.49 725.00,856.51 725.00,849.65 725.00,843.10 725.00,837.06 725.00,831.72 725.00,827.23 725.00,823.75 725.00,821.36 725.00,820.15 725.00,820.15 725.00,821.36" stroke="black" stroke-width="1" fill="none" stroke-dasharray="3,3" />
<ellipse cx="763.00" cy="858.07" rx="4.00" ry="6.00" stroke="black" stroke-width="2" fill="none" />
<ellipse cx="687.00" cy="858.07" rx="4.00" ry="6.00" stroke="black" stroke-width="2" fill="none" />
<polyline points="763.00,858.07 757.00,893.74 725.00,903.36 693.00,893.74 687.00,858.07" stroke="black" stroke-width="2" fill="none"  />
<circle cx="875.00" cy="860.00" r="40.00" stroke="black" stroke-width="2" fill="none" />
<polyline points="836.36,862.68 835.15,860.90 835.15,859.10 836.36,857.32 838.75,855.62 842.23,854.06 846.72,852.68 852.06,851.52 858.10,850.62 864.65,850.00 871.51,849.69 878.49,849.69 885.35,850.00 891.90,850.62 897.94,851.52 903.28,852.68 907.77,854.06 911.25,855.62 913.64,857.32" stroke="black" stroke-width="1" fill="none" stroke-dasharray="3,3" />
<polyline points="875.00,898.64 873.20,896.31 871.46,892.89 869.82,888.46 868.35,883.17 867.07,877.17 866.03,870.66 865.27,863.82 864.80,856.86 864.65,850.00 864.80,843.44 865.27,837.39 866.03,832.02 867.07,827.50 868.35,823.97 869.82,821.54 871.46,820.27 873.20,820.21 875.00,821.36" stroke="black" stroke-width="1" fill="none" stroke-dasharray="3,3" />
<ellipse cx="911.71" cy="855.52" rx="4.00" ry="6.00" stroke="black" stroke-width="2" fill="none" />
<ellipse cx="838.29" cy="860.61" rx="4.00" ry="6.00" stroke="black" stroke-width="2" fill="none" />
<polyline points="911.71,855.52 904.87,891.63 866.20,903.66 843.06,895.92 838.29,860.61" stroke="black" stroke-width="2" fill="none"  />
<circle cx="1025.00" cy="860.00" r="40.00" stroke="black" stroke-width="2" fill="none" />
<polyline points="990.36,865.18 987.41,863.54 985.61,861.80 985.00,860.00 985.61,858.20 987.41,856.46 990.36,854.82 994.36,853.35 999.29,852.07 1005.00,851.03 1011.32,850.27 1018.05,849.80 1025.00,849.65 1031.95,849.80 1038.68,850.27 1045.00,851.03 1050.71,852.07 1055.64,853.35 1059.64,854.82" stroke="black" stroke-width="1" fill="none" stroke-dasharray="3,3" />
<polyline points="1025.00,898.64 1021.53,896.49 1018.16,893.24 1015.00,888.98 1012.14,883.83 1009.68,877.97 1007.68,871.55 1006.21,864.79 1005.30,857.88 1005.00,851.03 1005.30,844.46 1006.21,838.36 1007.68,832.92 1009.68,828.30 1012.14,824.64 1015.00,822.06 1018.16,820.63 1021.53,820.39 1025.00,821.36" stroke="black" stroke-width="1" fill="none" stroke-dasharray="3,3" />
<ellipse cx="1057.91" cy="853.15" rx="4.00" ry="6.00" stroke="black" stroke-width="2" fill="none" />
<ellipse cx="992.09" cy="862.99" rx="4.00" ry="6.00" stroke="black" stroke-width="2" fill="none" />
<polyline points="1057.91,853.15 1050.71,889.74 1008.00,904.54 995.29,898.02 992.09,862.99" stroke="black" stroke-width="2" fill="none"  />
<circle cx="1175.00" cy="860.00" r="40.00" stroke="black" stroke-width="2" fill="none" />
<polyline points="1146.72,867.32 1142.23,865.94 1138.75,864.38 1136.36,862.68 1135.15,860.90 1135.15,859.10 1136.36,857.32 1138.75,855.62 1142.23,854.06 1146.72,852.68 1152.06,851.52 1158.10,850.62 1164.65,850.00 1171.51,849.69 1178.49,849.69 1185.35,850.00 1191.90,850.62 1197.94,851.52 1203.28,852.68" stroke="black" stroke-width="1" fill="none" stroke-dasharray="3,3" />
<polyline points="1175.00,898.64 1170.09,896.78 1165.33,893.80 1160.86,889.80 1156.82,884.89 1153.33,879.23 1150.51,872.98 1148.42,866.34 1147.15,859.50 1146.72,852.68 1147.15,846.08 1148.42,839.91 1150.51,834.34 1153.33,829.56 1156.82,825.70 1160.86,822.88 1165.33,821.19 1170.09,820.68 1175.00,821.36" stroke="black" stroke-width="1" fill="none" stroke-dasharray="3,3" />
<ellipse cx="1201.87" cy="851.11" rx="4.00" ry="6.00" stroke="black" stroke-width="2" fill="none" />
<ellipse cx="1148.13" cy="865.02" rx="4.00" ry="6.00" stroke="black" stroke-width="2" fill="none" />
<polyline points="1201.87,851.11 1194.80,888.18 1150.96,905.94 1149.54,899.90 1148.13,865.02" stroke="black" stroke-width="2" fill="none"  />
<circle cx="1325.00" cy="860.00" r="40.00" stroke="black" stroke-width="2" fill="none" />
<polyline points="1305.00,868.97 1299.29,867.93 1294.36,866.65 1290.36,865.18 1287.41,863.54 1285.61,861.80 1285.00,860.00 1285.61,858.20 1287.41,856.46 1290.36,854.82 1294.36,853.35 1299.29,852.07 1305.00,851.03 1311.32,850.27 1318.05,849.80 1325.00,849.65 1331.95,849.80 1338.68,850.27 1345.00,851.03" stroke="black" stroke-width="1" fill="none" stroke-dasharray="3,3" />
<polyline points="1325.00,898.64 1318.98,897.15 1313.15,894.54 1307.68,890.87 1302.73,886.27 1298.46,880.87 1295.00,874.84 1292.45,868.35 1290.89,861.61 1290.36,854.82 1290.89,848.19 1292.45,841.92 1295.00,836.20 1298.46,831.20 1302.73,827.08 1307.68,823.95 1313.15,821.92 1318.98,821.05 1325.00,821.36" stroke="black" stroke-width="1" fill="none" stroke-dasharray="3,3" />
<ellipse cx="1344.00" cy="849.55" rx="4.00" ry="6.00" stroke="black" stroke-width="2" fill="none" />
<polyline points="1344.00,849.55 1337.54,887.08 1295.56,907.76 1305.54,901.43 1306.00,866.59" stroke="black" stroke-width="2" fill="none"  />
<circle cx="125.00" cy="1040.00" r="40.00" stroke="black" stroke-width="2" fill="none" />
<polyline points="105.00,1022.68 111.32,1021.21 118.05,1020.30 125.00,1020.00 131.95,1020.30 138.68,1021.21 145.00,1022.68 150.71,1024.68 155.64,1027.14 159.64,1030.00 162.59,1033.16 164.39,1036.53 165.00,1040.00 164.39,1043.47 162.59,1046.84 159.64,1050.00 155.64,1052.86 150.71,1055.32 145.00,1057.32" stroke="black" stroke-width="1" fill="none" stroke-dasharray="3,3" />
<polyline points="125.00,1074.64 131.02,1072.38 136.85,1069.13 142.32,1065.00 147.27,1060.11 151.54,1054.61 155.00,1048.66 157.55,1042.45 159.11,1036.17 159.64,1030.00 159.11,1024.14 157.55,1018.76 155.00,1014.02 151.54,1010.07 147.27,1007.04 142.32,1005.00 136.85,1004.03 131.02,1004.15 125.00,1005.36" stroke="black" stroke-width="1" fill="none" stroke-dasharray="3,3" />
<ellipse cx="106.00" cy="1021.81" rx="4.00" ry="6.00" stroke="black" stroke-width="2" fill="none" />
<polyline points="144.00,1054.72 144.46,1084.03 154.44,1078.27 112.46,1056.32 106.00,1021.81" stroke="black" stroke-width="2" fill="none"  />
<circle cx="275.00" cy="1040.00" r="40.00" stroke="black" stroke-width="2" fill="none" />
<polyline points="246.72,1025.86 252.06,1023.62 258.10,1021.87 264.65,1020.68 271.51,1020.08 278.49,1020.08 285.35,1020.68 291.90,1021.87 297.94,1023.62 303.28,1025.86 307.77,1028.53 311.25,1031.55 313.64,1034.82 314.85,1038.26 314.85,1041.74 313.64,1045.18 311.25,1048.45 307.77,1051.47 303.28,1054.14" stroke="black" stroke-width="1" fill="none" stroke-dasharray="3,3" />
<polyline points="275.00,1074.64 279.91,1071.66 284.67,1067.72 289.14,1062.93 293.18,1057.45 296.67,1051.43 299.49,1045.07 301.58,1038.56 302.85,1032.09 303.28,1025.86 302.85,1020.06 301.58,1014.86 299.49,1010.43 296.67,1006.90 293.18,1004.37 289.14,1002.93 284.67,1002.61 279.91,1003.43 275.00,1005.36" stroke="black" stroke-width="1" fill="none" stroke-dasharray="3,3" />
<ellipse cx="301.87" cy="1051.70" rx="4.00" ry="6.00" stroke="black" stroke-width="2" fill="none" />
<ellipse cx="248.13" cy="1024.83" rx="4.00" ry="6.00" stroke="black" stroke-width="2" fill="none" />
<polyline points="301.87,1051.70 300.46,1081.08 299.04,1074.74 255.20,1058.45 248.13,1024.83" stroke="black" stroke-width="2" fill="none"  />
<circle cx="425.00" cy="1040.00" r="40.00" stroke="black" stroke-width="2" fill="none" />
<polyline points="390.36,1030.00 394.36,1027.14 399.29,1024.68 405.00,1022.68 411.32,1021.21 418.05,1020.30 425.00,1020.00 431.95,1020.30 438.68,1021.21 445.00,1022.68 450.71,1024.68 455.64,1027.14 459.64,1030.00 462.59,1033.16 464.39,1036.53 465.00,1040.00 464.39,1043.47 462.59,1046.84 459.64,1050.00" stroke="black" stroke-width="1" fill="none" stroke-dasharray="3,3" />
<polyline points="425.00,1074.64 428.47,1071.11 431.84,1066.63 435.00,1061.34 437.86,1055.40 440.32,1049.00 442.32,1042.32 443.79,1035.57 444.70,1028.96 445.00,1022.68 444.70,1016.93 443.79,1011.88 442.32,1007.68 440.32,1004.46 437.86,1002.33 435.00,1001.34 431.84,1001.52 428.47,1002.88 425.00,1005.36" stroke="black" stroke-width="1" fill="none" stroke-dasharray="3,3" />
<ellipse cx="457.91" cy="1047.77" rx="4.00" ry="6.00" stroke="black" stroke-width="2" fill="none" />
<ellipse cx="392.09" cy="1028.77" rx="4.00" ry="6.00" stroke="black" stroke-width="2" fill="none" />
<polyline points="457.91,1047.77 454.71,1077.44 442.00,1072.04 399.29,1061.44 392.09,1028.77" stroke="black" stroke-width="2" fill="none"  />
<circle cx="575.00" cy="1040.00" r="40.00" stroke="black" stroke-width="2" fill="none" />
<polyline points="536.36,1034.82 538.75,1031.55 542.23,1028.53 546.72,1025.86 552.06,1023.62 558.10,1021.87 564.65,1020.68 571.51,1020.08 578.49,1020.08 585.35,1020.68 591.90,1021.87 597.94,1023.62 603.28,1025.86 607.77,1028.53 611.25,1031.55 613.64,1034.82 614.85,1038.26 614.85,1041.74 613.64,1045.18" stroke="black" stroke-width="1" fill="none" stroke-dasharray="3,3" />
<polyline points="575.00,1074.64 576.80,1070.76 578.54,1065.94 580.18,1060.34 581.65,1054.12 582.93,1047.47 583.97,1040.59 584.73,1033.69 585.20,1026.99 585.35,1020.68 585.20,1014.96 584.73,1010.00 583.97,1005.95 582.93,1002.93 581.65,1001.05 580.18,1000.34 578.54,1000.84 576.80,1002.53 575.00,1005.36" stroke="black" stroke-width="1" fill="none" stroke-dasharray="3,3" />
<ellipse cx="611.71" cy="1043.19" rx="4.00" ry="6.00" stroke="black" stroke-width="2" fill="none" />
<ellipse cx="538.29" cy="1033.35" rx="4.00" ry="6.00" stroke="black" stroke-width="2" fill="none" />
<polyline points="611.71,1043.19 606.94,1073.39 583.80,1070.34 545.13,1065.10 538.29,1033.35" stroke="black" stroke-width="2" fill="none"  />
<circle cx="725.00" cy="1040.00" r="40.00" stroke="black" stroke-width="2" fill="none" />
<polyline points="685.00,1040.00 685.61,1036.53 687.41,1033.16 690.36,1030.00 694.36,1027.14 699.29,1024.68 705.00,1022.68 711.32,1021.21 718.05,1020.30 725.00,1020.00 731.95,1020.30 738.68,1021.21 745.00,1022.68 750.71,1024.68 755.64,1027.14 759.64,1030.00 762.59,1033.16 764.39,1036.53 765.00,1040.00" stroke="black" stroke-width="1" fill="none" stroke-dasharray="3,3" />
<polyline points="725.00,1074.64 725.00,1070.64 725.00,1065.71 725.00,1060.00 725.00,1053.68 725.00,1046.95 725.00,1040.00 725.00,1033.05 725.00,1026.32 725.00,1020.00 725.00,1014.29 725.00,1009.36 725.00,1005.36 725.00,1002.41 725.00,1000.61 725.00,1000.00 725.00,1000.61 725.00,1002.41 725.00,1005.36" stroke="black" stroke-width="1" fill="none" stroke-dasharray="3,3" />
<ellipse cx="763.00" cy="1038.27" rx="4.00" ry="6.00" stroke="black" stroke-width="2" fill="none" />
<ellipse cx="687.00" cy="1038.27" rx="4.00" ry="6.00" stroke="black" stroke-width="2" fill="none" />
<polyline points="763.00,1038.27 757.00,1069.18 725.00,1069.77 693.00,1069.18 687.00,1038.27" stroke="black" stroke-width="2" fill="none"  />
<circle cx="875.00" cy="1040.00" r="40.00" stroke="black" stroke-width="2" fill="none" />
<polyline points="836.36,1045.18 835.15,1041.74 835.15,1038.26 836.36,1034.82 838.75,1031.55 842.23,1028.53 846.72,1025.86 852.06,1023.62 858.10,1021.87 864.65,1020.68 871.51,1020.08 878.49,1020.08 885.35,1020.68 891.90,1021.87 897.94,1023.62 903.28,1025.86 907.77,1028.53 911.25,1031.55 913.64,1034.82" stroke="black" stroke-width="1" fill="none" stroke-dasharray="3,3" />
<polyline points="875.00,1074.64 873.20,1070.76 871.46,1065.94 869.82,1060.34 868.35,1054.12 867.07,1047.47 866.03,1040.59 865.27,1033.69 864.80,1026.99 864.65,1020.68 864.80,1014.96 865.27,1010.00 866.03,1005.95 867.07,1002.93 868.35,1001.05 869.82,1000.34 871.46,1000.84 873.20,1002.53 875.00,1005.36" stroke="black" stroke-width="1" fill="none" stroke-dasharray="3,3" />
<ellipse cx="911.71" cy="1033.35" rx="4.00" ry="6.00" stroke="black" stroke-width="2" fill="none" />
<ellipse cx="838.29" cy="1043.19" rx="4.00" ry="6.00" stroke="black" stroke-width="2" fill="none" />
<polyline points="911.71,1033.35 904.87,1065.10 866.20,1070.34 843.06,1073.39 838.29,1043.19" stroke="black" stroke-width="2" fill="none"  />
<circle cx="1025.00" cy="1040.00" r="40.00" stroke="black" stroke-width="2" fill="none" />
<polyline points="990.36,1050.00 987.41,1046.84 985.61,1043.47 985.00,1040.00 985.61,1036.53 987.41,1033.16 990.36,1030.00 994.36,1027.14 999.29,1024.68 1005.00,1022.68 1011.32,1021.21 1018.05,1020.30 1025.00,1020.00 1031.95,1020.30 1038.68,1021.21 1045.00,1022.68 1050.71,1024.68 1055.64,1027.14 1059.64,1030.00" stroke="black" stroke-width="1" fill="none" stroke-dasharray="3,3" />
<polyline points="1025.00,1074.64 1021.53,1071.11 1018.16,1066.63 1015.00,1061.34 1012.14,1055.40 1009.68,1049.00 1007.68,1042.32 1006.21,1035.57 1005.30,1028.96 1005.00,1022.68 1005.30,1016.93 1006.21,1011.88 1007.68,1007.68 1009.68,1004.46 1012.14,1002.33 1015.00,1001.34 1018.16,1001.52 1021.53,1002.88 1025.00,1005.36" stroke="black" stroke-width="1" fill="none" stroke-dasharray="3,3" />
<ellipse cx="1057.91" cy="1028.77" rx="4.00" ry="6.00" stroke="black" stroke-width="2" fill="none" />
<ellipse cx="992.09" cy="1047.77" rx="4.00" ry="6.00" stroke="black" stroke-width="2" fill="none" />
<polyline points="1057.91,1028.77 1050.71,1061.44 1008.00,1072.04 995.29,1077.44 992.09,1047.77" stroke="black" stroke-width="2" fill="none"  />
<circle cx="1175.00" cy="1040.00" r="40.00" stroke="black" stroke-width="2" fill="none" />
<polyline points="1146.72,1054.14 1142.23,1051.47 1138.75,1048.45 1136.36,1045.18 1135.15,1041.74 1135.15,1038.26 1136.36,1034.82 1138.75,1031.55 1142.23,1028.53 1146.72,1025.86 1152.06,1023.62 1158.10,1021.87 1164.65,1020.68 1171.51,1020.08 1178.49,1020.08 1185.35,1020.68 1191.90,1021.87 1197.94,1023.62 1203.28,1025.86" stroke="black" stroke-width="1" fill="none" stroke-dasharray="3,3" />
<polyline points="1175.00,1074.64 1170.09,1071.66 1165.33,1067.72 1160.86,1062.93 1156.82,1057.45 1153.33,1051.43 1150.51,1045.07 1148.42,1038.56 1147.15,1032.09 1146.72,1025.86 1147.15,1020.06 1148.42,1014.86 1150.51,1010.43 1153.33,1006.90 1156.82,1004.37 1160.86,1002.93 1165.33,1002.61 1170.09,1003.43 1175.00,1005.36" stroke="black" stroke-width="1" fill="none" stroke-dasharray="3,3" />
<ellipse cx="1201.87" cy="1024.83" rx="4.00" ry="6.00" stroke="black" stroke-width="2" fill="none" />
<ellipse cx="1148.13" cy="1051.70" rx="4.00" ry="6.00" stroke="black" stroke-width="2" fill="none" />
<polyline points="1201.87,1024.83 1194.80,1058.45 1150.96,1074.74 1149.54,1081.08 1148.13,1051.70" stroke="black" stroke-width="2" fill="none"  />
<circle cx="1325.00" cy="1040.00" r="40.00" stroke="black" stroke-width="2" fill="none" />
<polyline points="1305.00,1057.32 1299.29,1055.32 1294.36,1052.86 1290.36,1050.00 1287.41,1046.84 1285.61,1043.47 1285.00,1040.00 1285.61,1036.53 1287.41,1033.16 1290.36,1030.00 1294.36,1027.14 1299.29,1024.68 1305.00,1022.68 1311.32,1021.21 1318.05,1020.30 1325.00,1020.00 1331.95,1020.30 1338.68,1021.21 1345.00,1022.68" stroke="black" stroke-width="1" fill="none" stroke-dasharray="3,3" />
<polyline points="1325.00,1074.64 1318.98,1072.38 1313.15,1069.13 1307.68,1065.00 1302.73,1060.11 1298.46,1054.61 1295.00,1048.66 1292.45,1042.45 1290.89,1036.17 1290.36,1030.00 1290.89,1024.14 1292.45,1018.76 1295.00,1014.02 1298.46,1010.07 1302.73,1007.04 1307.68,1005.00 1313.15,1004.03 1318.98,1004.15 1325.00,1005.36" stroke="black" stroke-width="1" fill="none" stroke-dasharray="3,3" />
<ellipse cx="1344.00" cy="1021.81" rx="4.00" ry="6.00" stroke="black" stroke-width="2" fill="none" />
<polyline points="1344.00,1021.81 1337.54,1056.32 1295.56,1078.27 1305.54,1084.03 1306.00,1054.72" stroke="black" stroke-width="2" fill="none"  />
<circle cx="125.00" cy="1220.00" r="40.00" stroke="black" stroke-width="2" fill="none" />
<polyline points="105.00,1195.51 111.32,1193.42 118.05,1192.15 125.00,1191.72 131.95,1192.15 138.68,1193.42 145.00,1195.51 150.71,1198.33 155.64,1201.82 159.64,1205.86 162.59,1210.33 164.39,1215.09 165.00,1220.00 164.39,1224.91 162.59,1229.67 159.64,1234.14 155.64,1238.18 150.71,1241.67 145.00,1244.49" stroke="black" stroke-width="1" fill="none" stroke-dasharray="3,3" />
<polyline points="125.00,1248.28 131.02,1245.40 136.85,1241.74 142.32,1237.42 147.27,1232.58 151.54,1227.35 155.00,1221.89 157.55,1216.38 159.11,1210.98 159.64,1205.86 159.11,1201.16 157.55,1197.04 155.00,1193.61 151.54,1190.99 147.27,1189.24 142.32,1188.43 136.85,1188.58 131.02,1189.69 125.00,1191.72" stroke="black" stroke-width="1" fill="none" stroke-dasharray="3,3" />
<ellipse cx="106.00" cy="1195.32" rx="4.00" ry="6.00" stroke="black" stroke-width="2" fill="none" />
<polyline points="144.00,1241.86 144.46,1263.64 154.44,1246.16 112.46,1224.45 106.00,1195.32" stroke="black" stroke-width="2" fill="none"  />
<circle cx="275.00" cy="1220.00" r="40.00" stroke="black" stroke-width="2" fill="none" />
<polyline points="246.72,1200.00 252.06,1196.83 258.10,1194.37 264.65,1192.68 271.51,1191.82 278.49,1191.82 285.35,1192.68 291.90,1194.37 297.94,1196.83 303.28,1200.00 307.77,1203.78 311.25,1208.05 313.64,1212.68 314.85,1217.53 314.85,1222.47 313.64,1227.32 311.25,1231.95 307.77,1236.22 303.28,1240.00" stroke="black" stroke-width="1" fill="none" stroke-dasharray="3,3" />
<polyline points="275.00,1248.28 279.91,1244.38 284.67,1239.74 289.14,1234.49 293.18,1228.81 296.67,1222.86 299.49,1216.82 301.58,1210.88 302.85,1205.22 303.28,1200.00 302.85,1195.39 301.58,1191.53 299.49,1188.54 296.67,1186.50 293.18,1185.48 289.14,1185.51 284.67,1186.58 279.91,1188.67 275.00,1191.72" stroke="black" stroke-width="1" fill="none" stroke-dasharray="3,3" />
<ellipse cx="301.87" cy="1237.59" rx="4.00" ry="6.00" stroke="black" stroke-width="2" fill="none" />
<ellipse cx="248.13" cy="1199.59" rx="4.00" ry="6.00" stroke="black" stroke-width="2" fill="none" />
<polyline points="301.87,1237.59 300.46,1259.46 299.04,1241.18 255.20,1227.46 248.13,1199.59" stroke="black" stroke-width="2" fill="none"  />
<circle cx="425.00" cy="1220.00" r="40.00" stroke="black" stroke-width="2" fill="none" />
<polyline points="390.36,1205.86 394.36,1201.82 399.29,1198.33 405.00,1195.51 411.32,1193.42 418.05,1192.15 425.00,1191.72 431.95,1192.15 438.68,1193.42 445.00,1195.51 450.71,1198.33 455.64,1201.82 459.64,1205.86 462.59,1210.33 464.39,1215.09 465.00,1220.00 464.39,1224.91 462.59,1229.67 459.64,1234.14" stroke="black" stroke-width="1" fill="none" stroke-dasharray="3,3" />
<polyline points="425.00,1248.28 428.47,1243.60 431.84,1238.20 435.00,1232.25 437.86,1225.92 440.32,1219.42 442.32,1212.93 443.79,1206.66 444.70,1200.79 445.00,1195.51 444.70,1190.97 443.79,1187.31 442.32,1184.64 440.32,1183.06 437.86,1182.59 435.00,1183.26 431.84,1185.04 428.47,1187.89 425.00,1191.72" stroke="black" stroke-width="1" fill="none" stroke-dasharray="3,3" />
<ellipse cx="457.91" cy="1232.02" rx="4.00" ry="6.00" stroke="black" stroke-width="2" fill="none" />
<ellipse cx="392.09" cy="1205.15" rx="4.00" ry="6.00" stroke="black" stroke-width="2" fill="none" />
<polyline points="457.91,1232.02 454.71,1254.32 442.00,1237.36 399.29,1231.69 392.09,1205.15" stroke="black" stroke-width="2" fill="none"  />
<circle cx="575.00" cy="1220.00" r="40.00" stroke="black" stroke-width="2" fill="none" />
<polyline points="536.36,1212.68 538.75,1208.05 542.23,1203.78 546.72,1200.00 552.06,1196.83 558.10,1194.37 564.65,1192.68 571.51,1191.82 578.49,1191.82 585.35,1192.68 591.90,1194.37 597.94,1196.83 603.28,1200.00 607.77,1203.78 611.25,1208.05 613.64,1212.68 614.85,1217.53 614.85,1222.47 613.64,1227.32" stroke="black" stroke-width="1" fill="none" stroke-dasharray="3,3" />
<polyline points="575.00,1248.28 576.80,1243.11 578.54,1237.23 580.18,1230.83 581.65,1224.11 582.93,1217.25 583.97,1210.48 584.73,1204.00 585.20,1198.01 585.35,1192.68 585.20,1188.18 584.73,1184.65 583.97,1182.20 582.93,1180.89 581.65,1180.77 580.18,1181.84 578.54,1184.08 576.80,1187.40 575.00,1191.72" stroke="black" stroke-width="1" fill="none" stroke-dasharray="3,3" />
<ellipse cx="611.71" cy="1225.54" rx="4.00" ry="6.00" stroke="black" stroke-width="2" fill="none" />
<ellipse cx="538.29" cy="1211.63" rx="4.00" ry="6.00" stroke="black" stroke-width="2" fill="none" />
<polyline points="611.71,1225.54 606.94,1248.58 583.80,1234.96 545.13,1236.87 538.29,1211.63" stroke="black" stroke-width="2" fill="none"  />
<circle cx="725.00" cy="1220.00" r="40.00" stroke="black" stroke-width="2" fill="none" />
<polyline points="685.00,1220.00 685.61,1215.09 687.41,1210.33 690.36,1205.86 694.36,1201.82 699.29,1198.33 705.00,1195.51 711.32,1193.42 718.05,1192.15 725.00,1191.72 731.95,1192.15 738.68,1193.42 745.00,1195.51 750.71,1198.33 755.64,1201.82 759.64,1205.86 762.59,1210.33 764.39,1215.09 765.00,1220.00" stroke="black" stroke-width="1" fill="none" stroke-dasharray="3,3" />
<polyline points="725.00,1248.28 725.00,1242.94 725.00,1236.90 725.00,1230.35 725.00,1223.49 725.00,1216.51 725.00,1209.65 725.00,1203.10 725.00,1197.06 725.00,1191.72 725.00,1187.23 725.00,1183.75 725.00,1181.36 725.00,1180.15 725.00,1180.15 725.00,1181.36 725.00,1183.75 725.00,1187.23 725.00,1191.72" stroke="black" stroke-width="1" fill="none" stroke-dasharray="3,3" />
<ellipse cx="763.00" cy="1218.59" rx="4.00" ry="6.00" stroke="black" stroke-width="2" fill="none" />
<ellipse cx="687.00" cy="1218.59" rx="4.00" ry="6.00" stroke="black" stroke-width="2" fill="none" />
<polyline points="763.00,1218.59 757.00,1242.63 725.00,1234.14 693.00,1242.63 687.00,1218.59" stroke="black" stroke-width="2" fill="none"  />
<circle cx="875.00" cy="1220.00" r="40.00" stroke="black" stroke-width="2" fill="none" />
<polyline points="836.36,1227.32 835.15,1222.47 835.15,1217.53 836.36,1212.68 838.75,1208.05 842.23,1203.78 846.72,1200.00 852.06,1196.83 858.10,1194.37 864.65,1192.68 871.51,1191.82 878.49,1191.82 885.35,1192.68 891.90,1194.37 897.94,1196.83 903.28,1200.00 907.77,1203.78 911.25,1208.05 913.64,1212.68" stroke="black" stroke-width="1" fill="none" stroke-dasharray="3,3" />
<polyline points="875.00,1248.28 873.20,1243.11 871.46,1237.23 869.82,1230.83 868.35,1224.11 867.07,1217.25 866.03,1210.48 865.27,1204.00 864.80,1198.01 864.65,1192.68 864.80,1188.18 865.27,1184.65 866.03,1182.20 867.07,1180.89 868.35,1180.77 869.82,1181.84 871.46,1184.08 873.20,1187.40 875.00,1191.72" stroke="black" stroke-width="1" fill="none" stroke-dasharray="3,3" />
<ellipse cx="911.71" cy="1211.63" rx="4.00" ry="6.00" stroke="black" stroke-width="2" fill="none" />
<ellipse cx="838.29" cy="1225.54" rx="4.00" ry="6.00" stroke="black" stroke-width="2" fill="none" />
<polyline points="911.71,1211.63 904.87,1236.87 866.20,1234.96 843.06,1248.58 838.29,1225.54" stroke="black" stroke-width="2" fill="none"  />
<circle cx="1025.00" cy="1220.00" r="40.00" stroke="black" stroke-width="2" fill="none" />
<polyline points="990.36,1234.14 987.41,1229.67 985.61,1224.91 985.00,1220.00 985.61,1215.09 987.41,1210.33 990.36,1205.86 994.36,1201.82 999.29,1198.33 1005.00,1195.51 1011.32,1193.42 1018.05,1192.15 1025.00,1191.72 1031.95,1192.15 1038.68,1193.42 1045.00,1195.51 1050.71,1198.33 1055.64,1201.82 1059.64,1205.86" stroke="black" stroke-width="1" fill="none" stroke-dasharray="3,3" />
<polyline points="1025.00,1248.28 1021.53,1243.60 1018.16,1238.20 1015.00,1232.25 1012.14,1225.92 1009.68,1219.42 1007.68,1212.93 1006.21,1206.66 1005.30,1200.79 1005.00,1195.51 1005.30,1190.97 1006.21,1187.31 1007.68,1184.64 1009.68,1183.06 1012.14,1182.59 1015.00,1183.26 1018.16,1185.04 1021.53,1187.89 1025.00,1191.72" stroke="black" stroke-width="1" fill="none" stroke-dasharray="3,3" />
<ellipse cx="1057.91" cy="1205.15" rx="4.00" ry="6.00" stroke="black" stroke-width="2" fill="none" />
<ellipse cx="992.09" cy="1232.02" rx="4.00" ry="6.00" stroke="black" stroke-width="2" fill="none" />
<polyline points="1057.91,1205.15 1050.71,1231.69 1008.00,1237.36 995.29,1254.32 992.09,1232.02" stroke="black" stroke-width="2" fill="none"  />
<circle cx="1175.00" cy="1220.00" r="40.00" stroke="black" stroke-width="2" fill="none" />
<polyline points="1146.72,1240.00 1142.23,1236.22 1138.75,1231.95 1136.36,1227.32 1135.15,1222.47 1135.15,1217.53 1136.36,1212.68 1138.75,1208.05 1142.23,1203.78 1146.72,1200.00 1152.06,1196.83 1158.10,1194.37 1164.65,1192.68 1171.51,1191.82 1178.49,1191.82 1185.35,1192.68 1191.90,1194.37 1197.94,1196.83 1203.28,1200.00" stroke="black" stroke-width="1" fill="none" stroke-dasharray="3,3" />
<polyline points="1175.00,1248.28 1170.09,1244.38 1165.33,1239.74 1160.86,1234.49 1156.82,1228.81 1153.33,1222.86 1150.51,1216.82 1148.42,1210.88 1147.15,1205.22 1146.72,1200.00 1147.15,1195.39 1148.42,1191.53 1150.51,1188.54 1153.33,1186.50 1156.82,1185.48 1160.86,1185.51 1165.33,1186.58 1170.09,1188.67 1175.00,1191.72" stroke="black" stroke-width="1" fill="none" stroke-dasharray="3,3" />
<ellipse cx="1201.87" cy="1199.59" rx="4.00" ry="6.00" stroke="black" stroke-width="2" fill="none" />
<ellipse cx="1148.13" cy="1237.59" rx="4.00" ry="6.00" stroke="black" stroke-width="2" fill="none" />
<polyline points="1201.87,1199.59 1194.80,1227.46 1150.96,1241.18 1149.54,1259.46 1148.13,1237.59" stroke="black" stroke-width="2" fill="none"  />
<circle cx="1325.00" cy="1220.00" r="40.00" stroke="black" stroke-width="2" fill="none" />
<polyline points="1305.00,1244.49 1299.29,1241.67 1294.36,1238.18 1290.36,1234.14 1287.41,1229.67 1285.61,1224.91 1285.00,1220.00 1285.61,1215.09 1287.41,1210.33 1290.36,1205.86 1294.36,1201.82 1299.29,1198.33 1305.00,1195.51 1311.32,1193.42 1318.05,1192.15 1325.00,1191.72 1331.95,1192.15 1338.68,1193.42 1345.00,1195.51" stroke="black" stroke-width="1" fill="none" stroke-dasharray="3,3" />
<polyline points="1325.00,1248.28 1318.98,1245.40 1313.15,1241.74 1307.68,1237.42 1302.73,1232.58 1298.46,1227.35 1295.00,1221.89 1292.45,1216.38 1290.89,1210.98 1290.36,1205.86 1290.89,1201.16 1292.45,1197.04 1295.00,1193.61 1298.46,1190.99 1302.73,1189.24 1307.68,1188.43 1313.15,1188.58 1318.98,1189.69 1325.00,1191.72" stroke="black" stroke-width="1" fill="none" stroke-dasharray="3,3" />
<ellipse cx="1344.00" cy="1195.32" rx="4.00" ry="6.00" stroke="black" stroke-width="2" fill="none" />
<polyline points="1344.00,1195.32 1337.54,1224.45 1295.56,1246.16 1305.54,1263.64 1306.00,1241.86" stroke="black" stroke-width="2" fill="none"  />
</svg>